<?xml version="1.0" encoding="utf-8"?>
<!-- Generator: Adobe Illustrator 24.0.0, SVG Export Plug-In . SVG Version: 6.00 Build 0)  -->
<svg version="1.1" xmlns="http://www.w3.org/2000/svg" xmlns:xlink="http://www.w3.org/1999/xlink" x="0px" y="0px"
	 viewBox="0 0 500 500" style="enable-background:new 0 0 500 500;" xml:space="preserve">
<style type="text/css">
	.st0{fill:#7E3EFB;stroke:#9EB256;stroke-miterlimit:10;}
	.st1{opacity:0.7;fill:#7E3EFB;stroke:#9EB256;stroke-miterlimit:10;}
	.st2{fill:#F5F1F5;}
	.st3{opacity:0.3;fill:#F5F1F5;}
	.st4{fill:#EADFEA;}
	.st5{opacity:0.5;}
	.st6{opacity:0.4;fill:#EADFEA;}
	.st7{fill:#EADFEA;stroke:#263238;stroke-linecap:round;stroke-linejoin:round;stroke-miterlimit:10;}
	.st8{fill:#FFFFFF;stroke:#263238;stroke-linecap:round;stroke-linejoin:round;stroke-miterlimit:10;}
	.st9{fill:#263238;}
	.st10{fill:#263238;stroke:#263238;stroke-linecap:round;stroke-linejoin:round;stroke-miterlimit:10;}
	.st11{fill:#6225F4;}
	.st12{fill:none;stroke:#FFFFFF;stroke-width:3;stroke-linecap:round;stroke-linejoin:round;stroke-miterlimit:10;}
	.st13{fill:#FFFFFF;}
	.st14{fill:#F1EFF6;}
	.st15{fill:none;stroke:#FFFFFF;stroke-width:0.5;stroke-linecap:round;stroke-linejoin:round;stroke-miterlimit:10;}
	.st16{fill:none;stroke:#263238;stroke-linecap:round;stroke-linejoin:round;stroke-miterlimit:10;}
	.st17{fill:#7238E5;stroke:#263238;stroke-linecap:round;stroke-linejoin:round;stroke-miterlimit:10;}
</style>
<g id="Background_Simple">
	<g>
		<path class="st0" d="M356.39,130.86c0,0-40.26-44.11-104.01-41.98s-118.1,44.82-163.06,78.26
			c-44.96,33.44-57.04,85.38-30.87,125.93s67.77,23.48,120.78,49.8c53.01,26.33,63.08,41.27,122.13,34.86
			c59.05-6.4,104.01-71.86,97.3-141.59C391.96,166.44,356.39,130.86,356.39,130.86z"/>
		<path class="st1" d="M356.39,130.86c0,0-40.26-44.11-104.01-41.98s-118.1,44.82-163.06,78.26
			c-44.96,33.44-57.04,85.38-30.87,125.93s67.77,23.48,120.78,49.8c53.01,26.33,63.08,41.27,122.13,34.86
			c59.05-6.4,104.01-71.86,97.3-141.59C391.96,166.44,356.39,130.86,356.39,130.86z"/>
	</g>
</g>
<g id="Ground">
	<g>
		<ellipse class="st2" cx="257.62" cy="392.44" rx="198.52" ry="10.83"/>
		<ellipse class="st3" cx="257.62" cy="392.44" rx="198.52" ry="10.83"/>
	</g>
</g>
<g id="Plants">
	<g>
		<g>
			<g>
				<path class="st4" d="M374.94,229.2c-0.06,0.01,0.7-3.73,0.77-3.96c0.86-2.66,4.1-7.3,7.23-7.3c2.26,0,3.79,2.06,3.57,4.22
					c-0.23,2.2-2.21,4.08-3.99,5.16C380.41,228.6,374.94,229.2,374.94,229.2z"/>
				<path class="st4" d="M368.87,204.09c2.95,1.06,4.42,6.52,4.33,9.32c-0.01,0.24-0.57,4.01-0.62,3.98c0,0-0.05-0.02-0.06-0.03
					c0.24,0.86,0.48,1.79,0.73,2.8c0.44,1.88,0.93,4.01,1.3,6.36c0.38,2.35,0.72,4.91,0.83,7.65c0.12,2.74,0.11,5.63-0.29,8.6
					c0,0.03-0.01,0.07-0.02,0.1c0.39-0.83,1.55-3.13,1.65-3.29c1.54-2.34,5.88-5.96,8.9-5.13c2.18,0.6,3.11,2.99,2.33,5.01
					c-0.8,2.06-3.2,3.35-5.22,3.92c-2.27,0.65-7.33-0.12-7.73-0.18c-0.41,2.83-1.05,5.7-1.86,8.56c-0.46,1.64-0.98,3.28-1.52,4.91
					c0.36-0.71,0.68-1.34,0.74-1.43c1.54-2.34,5.88-5.96,8.9-5.13c2.18,0.6,3.11,2.99,2.33,5.01c-0.8,2.06-3.2,3.35-5.22,3.92
					c-2.04,0.58-6.37,0.02-7.51-0.15c-0.21,0.63-0.42,1.25-0.64,1.88c-1.04,3-2.08,5.98-3.02,8.94c-0.33,1.04-0.62,2.08-0.91,3.12
					c0.32-0.63,0.59-1.16,0.64-1.23c1.54-2.34,5.88-5.96,8.9-5.13c2.18,0.6,3.11,2.99,2.33,5.01c-0.8,2.06-3.2,3.35-5.22,3.92
					c-1.95,0.55-5.94,0.07-7.3-0.12c-0.27,1.07-0.53,2.15-0.74,3.2c-0.13,0.72-0.3,1.41-0.39,2.14c-0.1,0.72-0.2,1.44-0.3,2.14
					c-0.14,1.37-0.3,2.78-0.4,4.12c-0.08,0.93-0.14,1.82-0.2,2.72c0.32-1.04,0.98-3.07,1.05-3.23c0.77-1.69,2.69-4.12,4.8-5.46
					c0.11-0.25,0.25-0.49,0.4-0.72c1.24-1.77,3.75-2.33,5.46-0.85c2.37,2.05,1.78,7.67,0.69,10.25c-0.06,0.15-0.95,1.72-1.52,2.71
					c0.43-0.53,0.83-1.04,1.28-1.58c0.87-1.07,1.77-2.11,2.74-3.23c0.48-0.52,0.97-1.06,1.47-1.59c0.48-0.54,1.05-1.05,1.58-1.59
					c1.25-1.21,2.59-2.38,3.95-3.53c-0.93-0.77-4.2-3.53-5.15-5.41c-0.94-1.87-1.61-4.51-0.63-6.5c0.96-1.94,3.35-2.87,5.26-1.67
					c2.66,1.67,2.92,7.31,2.23,10.03c-0.04,0.17-0.76,2.06-1.17,3.09c0.83-0.68,1.65-1.37,2.51-2.03c2.48-1.92,5.05-3.78,7.6-5.65
					c0.78-0.57,1.56-1.15,2.33-1.73c-0.33-0.27-4.3-3.47-5.35-5.57c-0.94-1.87-1.61-4.51-0.63-6.5c0.96-1.94,3.35-2.87,5.26-1.67
					c2.66,1.67,2.92,7.31,2.23,10.03c-0.05,0.2-1.08,2.93-1.38,3.6c1.71-1.27,3.4-2.56,5.01-3.89c2.23-1.84,4.32-3.76,6.2-5.77
					c-0.16-0.12-4.3-3.45-5.38-5.6c-0.94-1.87-1.61-4.51-0.63-6.5c0.96-1.94,3.35-2.87,5.26-1.67c2.66,1.67,2.92,7.31,2.23,10.03
					c-0.05,0.18-0.83,2.25-1.22,3.23c0.08,0.05,0.07,0.04,0.15,0.09c1.99-2.18,3.65-4.55,5.09-6.84c0.84-1.32,1.56-2.64,2.24-3.93
					c-0.84-0.54-4.63-3.05-5.82-4.88c-1.14-1.76-2.1-4.31-1.34-6.39c0.74-2.04,3.02-3.22,5.05-2.24c2.82,1.36,3.71,6.95,3.32,9.72
					c-0.02,0.15-0.4,1.66-0.7,2.76c0.3-0.59,0.61-1.19,0.89-1.76c1.03-2.13,1.84-4.15,2.55-5.95c0.39-1.02,0.73-1.96,1.03-2.83
					c-0.54-0.96-2.69-4.84-2.89-6.98c-0.2-2.08,0.12-4.79,1.75-6.29c1.6-1.47,4.16-1.47,5.51,0.34c1.88,2.51,0.09,7.88-1.53,10.16
					c-0.14,0.2-2.68,3.03-2.71,2.98c0,0-0.03-0.05-0.03-0.06c-0.28,0.85-0.58,1.76-0.94,2.74c-0.67,1.81-1.44,3.85-2.43,6.02
					c-0.98,2.17-2.11,4.49-3.52,6.84c-1.41,2.35-3.01,4.75-4.99,7.01c-0.02,0.03-0.05,0.05-0.07,0.07c0.78-0.48,3.01-1.76,3.2-1.83
					c2.57-1.11,8.19-1.73,10.26,0.63c1.49,1.7,0.95,4.21-0.82,5.46c-1.81,1.28-4.52,1.03-6.51,0.4c-2.25-0.71-6.05-4.14-6.35-4.41
					c-1.9,2.14-4.02,4.17-6.28,6.12c-1.29,1.11-2.63,2.19-3.98,3.26c0.69-0.39,1.31-0.74,1.4-0.78c2.57-1.11,8.19-1.73,10.26,0.63
					c1.49,1.7,0.95,4.21-0.82,5.46c-1.81,1.28-4.52,1.03-6.52,0.4c-2.02-0.64-5.32-3.5-6.18-4.27c-0.52,0.4-1.04,0.81-1.56,1.21
					c-2.52,1.93-5.04,3.84-7.45,5.79c-0.85,0.69-1.66,1.4-2.48,2.1c0.61-0.35,1.13-0.64,1.22-0.68c2.57-1.11,8.19-1.73,10.25,0.63
					c1.49,1.7,0.95,4.21-0.82,5.46c-1.81,1.28-4.52,1.03-6.51,0.4c-1.93-0.61-5-3.22-6.03-4.13c-0.81,0.75-1.63,1.49-2.38,2.26
					c-0.5,0.53-1.03,1.01-1.5,1.57c-0.48,0.55-0.96,1.09-1.43,1.62c-0.87,1.07-1.78,2.16-2.61,3.22c-0.58,0.73-1.12,1.44-1.67,2.16
					c0.84-0.69,2.51-2.02,2.66-2.11c2.38-1.48,7.84-2.95,10.23-0.93c1.73,1.46,1.57,4.02,0.01,5.52c-1.59,1.54-4.31,1.7-6.38,1.38
					c-2.27-0.36-6.39-3.04-6.9-3.38c-0.9,1.18-1.76,2.34-2.56,3.45c-2.77,3.83-4.93,7.13-6.41,9.45c-0.05,0.08-0.1,0.16-0.15,0.24
					l-1.92-0.93c0.1-0.15,0.2-0.3,0.3-0.46c1.55-2.32,3.8-5.6,6.69-9.4c0.91-1.21,1.9-2.47,2.94-3.77
					c-0.27-0.29-1.77-1.96-2.98-3.69c-2.2,0.86-6.79,0.9-7.38,0.9c-0.1,1.48-0.18,2.93-0.23,4.29c-0.2,4.72-0.18,8.67-0.14,11.42
					c0,0.11,0,0.21,0.01,0.32l-2.11-1.02c0.02-2.74,0.1-6.44,0.38-10.82c0.09-1.51,0.22-3.11,0.37-4.76
					c-0.58-0.15-5.35-1.37-7.16-2.81c-1.63-1.31-3.35-3.42-3.29-5.64c0.06-2.17,1.84-4.01,4.08-3.72c3.11,0.4,5.72,5.42,6.23,8.17
					c0.03,0.16,0.16,1.96,0.22,3.1c0.06-0.67,0.12-1.33,0.19-2.02c0.14-1.37,0.32-2.73,0.5-4.2c0.11-0.71,0.23-1.42,0.35-2.14
					c0.1-0.72,0.3-1.46,0.45-2.2c0.38-1.7,0.84-3.41,1.35-5.12c-1.2-0.12-5.45-0.62-7.27-1.67c-1.81-1.04-3.83-2.87-4.11-5.07
					c-0.27-2.15,1.21-4.24,3.47-4.3c3.13-0.08,6.47,4.49,7.4,7.13c0.06,0.16,0.51,2.14,0.73,3.22c0.31-1.03,0.62-2.05,0.97-3.08
					c1.01-2.97,2.13-5.94,3.22-8.9c0.34-0.91,0.66-1.82,0.99-2.73c-0.43-0.04-5.5-0.52-7.54-1.7c-1.81-1.04-3.83-2.87-4.11-5.07
					c-0.27-2.15,1.21-4.24,3.47-4.3c3.13-0.08,6.47,4.49,7.4,7.13c0.07,0.2,0.71,3.04,0.84,3.77c0.72-2,1.43-4.01,2.04-6.01
					c0.85-2.76,1.53-5.52,1.99-8.24c-0.2-0.02-5.49-0.5-7.58-1.7c-1.81-1.04-3.83-2.87-4.11-5.07c-0.27-2.15,1.21-4.24,3.47-4.3
					c3.13-0.08,6.47,4.49,7.4,7.13c0.06,0.17,0.55,2.33,0.76,3.37c0.1,0,0.08,0,0.18,0c0.46-2.92,0.54-5.81,0.47-8.51
					c-0.03-1.57-0.15-3.06-0.3-4.52c-1,0.01-5.54,0.01-7.54-0.86c-1.92-0.84-4.13-2.44-4.64-4.59c-0.51-2.11,0.74-4.35,2.98-4.65
					c3.11-0.42,6.93,3.75,8.13,6.28c0.07,0.14,0.58,1.61,0.94,2.68c-0.08-0.65-0.14-1.33-0.23-1.96c-0.32-2.35-0.75-4.48-1.15-6.37
					c-0.24-1.07-0.47-2.03-0.7-2.93c-0.98-0.5-4.91-2.56-6.26-4.22c-1.31-1.63-2.54-4.06-2-6.21
					C364.6,204.74,366.74,203.32,368.87,204.09z"/>
				<path class="st4" d="M425.55,252.42c-2.45-0.1-7.35-2.61-7.35-2.61c-0.05-0.03,2.64-2.72,2.83-2.88
					c2.19-1.75,7.45-3.83,10.06-2.1c1.88,1.25,2.02,3.81,0.65,5.48C430.33,252.03,427.64,252.5,425.55,252.42z"/>
			</g>
			<g class="st5">
				<path class="st4" d="M374.94,229.2c-0.06,0.01,0.7-3.73,0.77-3.96c0.86-2.66,4.1-7.3,7.23-7.3c2.26,0,3.79,2.06,3.57,4.22
					c-0.23,2.2-2.21,4.08-3.99,5.16C380.41,228.6,374.94,229.2,374.94,229.2z"/>
				<path class="st4" d="M368.87,204.09c2.95,1.06,4.42,6.52,4.33,9.32c-0.01,0.24-0.57,4.01-0.62,3.98c0,0-0.05-0.02-0.06-0.03
					c0.24,0.86,0.48,1.79,0.73,2.8c0.44,1.88,0.93,4.01,1.3,6.36c0.38,2.35,0.72,4.91,0.83,7.65c0.12,2.74,0.11,5.63-0.29,8.6
					c0,0.03-0.01,0.07-0.02,0.1c0.39-0.83,1.55-3.13,1.65-3.29c1.54-2.34,5.88-5.96,8.9-5.13c2.18,0.6,3.11,2.99,2.33,5.01
					c-0.8,2.06-3.2,3.35-5.22,3.92c-2.27,0.65-7.33-0.12-7.73-0.18c-0.41,2.83-1.05,5.7-1.86,8.56c-0.46,1.64-0.98,3.28-1.52,4.91
					c0.36-0.71,0.68-1.34,0.74-1.43c1.54-2.34,5.88-5.96,8.9-5.13c2.18,0.6,3.11,2.99,2.33,5.01c-0.8,2.06-3.2,3.35-5.22,3.92
					c-2.04,0.58-6.37,0.02-7.51-0.15c-0.21,0.63-0.42,1.25-0.64,1.88c-1.04,3-2.08,5.98-3.02,8.94c-0.33,1.04-0.62,2.08-0.91,3.12
					c0.32-0.63,0.59-1.16,0.64-1.23c1.54-2.34,5.88-5.96,8.9-5.13c2.18,0.6,3.11,2.99,2.33,5.01c-0.8,2.06-3.2,3.35-5.22,3.92
					c-1.95,0.55-5.94,0.07-7.3-0.12c-0.27,1.07-0.53,2.15-0.74,3.2c-0.13,0.72-0.3,1.41-0.39,2.14c-0.1,0.72-0.2,1.44-0.3,2.14
					c-0.14,1.37-0.3,2.78-0.4,4.12c-0.08,0.93-0.14,1.82-0.2,2.72c0.32-1.04,0.98-3.07,1.05-3.23c0.77-1.69,2.69-4.12,4.8-5.46
					c0.11-0.25,0.25-0.49,0.4-0.72c1.24-1.77,3.75-2.33,5.46-0.85c2.37,2.05,1.78,7.67,0.69,10.25c-0.06,0.15-0.95,1.72-1.52,2.71
					c0.43-0.53,0.83-1.04,1.28-1.58c0.87-1.07,1.77-2.11,2.74-3.23c0.48-0.52,0.97-1.06,1.47-1.59c0.48-0.54,1.05-1.05,1.58-1.59
					c1.25-1.21,2.59-2.38,3.95-3.53c-0.93-0.77-4.2-3.53-5.15-5.41c-0.94-1.87-1.61-4.51-0.63-6.5c0.96-1.94,3.35-2.87,5.26-1.67
					c2.66,1.67,2.92,7.31,2.23,10.03c-0.04,0.17-0.76,2.06-1.17,3.09c0.83-0.68,1.65-1.37,2.51-2.03c2.48-1.92,5.05-3.78,7.6-5.65
					c0.78-0.57,1.56-1.15,2.33-1.73c-0.33-0.27-4.3-3.47-5.35-5.57c-0.94-1.87-1.61-4.51-0.63-6.5c0.96-1.94,3.35-2.87,5.26-1.67
					c2.66,1.67,2.92,7.31,2.23,10.03c-0.05,0.2-1.08,2.93-1.38,3.6c1.71-1.27,3.4-2.56,5.01-3.89c2.23-1.84,4.32-3.76,6.2-5.77
					c-0.16-0.12-4.3-3.45-5.38-5.6c-0.94-1.87-1.61-4.51-0.63-6.5c0.96-1.94,3.35-2.87,5.26-1.67c2.66,1.67,2.92,7.31,2.23,10.03
					c-0.05,0.18-0.83,2.25-1.22,3.23c0.08,0.05,0.07,0.04,0.15,0.09c1.99-2.18,3.65-4.55,5.09-6.84c0.84-1.32,1.56-2.64,2.24-3.93
					c-0.84-0.54-4.63-3.05-5.82-4.88c-1.14-1.76-2.1-4.31-1.34-6.39c0.74-2.04,3.02-3.22,5.05-2.24c2.82,1.36,3.71,6.95,3.32,9.72
					c-0.02,0.15-0.4,1.66-0.7,2.76c0.3-0.59,0.61-1.19,0.89-1.76c1.03-2.13,1.84-4.15,2.55-5.95c0.39-1.02,0.73-1.96,1.03-2.83
					c-0.54-0.96-2.69-4.84-2.89-6.98c-0.2-2.08,0.12-4.79,1.75-6.29c1.6-1.47,4.16-1.47,5.51,0.34c1.88,2.51,0.09,7.88-1.53,10.16
					c-0.14,0.2-2.68,3.03-2.71,2.98c0,0-0.03-0.05-0.03-0.06c-0.28,0.85-0.58,1.76-0.94,2.74c-0.67,1.81-1.44,3.85-2.43,6.02
					c-0.98,2.17-2.11,4.49-3.52,6.84c-1.41,2.35-3.01,4.75-4.99,7.01c-0.02,0.03-0.05,0.05-0.07,0.07c0.78-0.48,3.01-1.76,3.2-1.83
					c2.57-1.11,8.19-1.73,10.26,0.63c1.49,1.7,0.95,4.21-0.82,5.46c-1.81,1.28-4.52,1.03-6.51,0.4c-2.25-0.71-6.05-4.14-6.35-4.41
					c-1.9,2.14-4.02,4.17-6.28,6.12c-1.29,1.11-2.63,2.19-3.98,3.26c0.69-0.39,1.31-0.74,1.4-0.78c2.57-1.11,8.19-1.73,10.26,0.63
					c1.49,1.7,0.95,4.21-0.82,5.46c-1.81,1.28-4.52,1.03-6.52,0.4c-2.02-0.64-5.32-3.5-6.18-4.27c-0.52,0.4-1.04,0.81-1.56,1.21
					c-2.52,1.93-5.04,3.84-7.45,5.79c-0.85,0.69-1.66,1.4-2.48,2.1c0.61-0.35,1.13-0.64,1.22-0.68c2.57-1.11,8.19-1.73,10.25,0.63
					c1.49,1.7,0.95,4.21-0.82,5.46c-1.81,1.28-4.52,1.03-6.51,0.4c-1.93-0.61-5-3.22-6.03-4.13c-0.81,0.75-1.63,1.49-2.38,2.26
					c-0.5,0.53-1.03,1.01-1.5,1.57c-0.48,0.55-0.96,1.09-1.43,1.62c-0.87,1.07-1.78,2.16-2.61,3.22c-0.58,0.73-1.12,1.44-1.67,2.16
					c0.84-0.69,2.51-2.02,2.66-2.11c2.38-1.48,7.84-2.95,10.23-0.93c1.73,1.46,1.57,4.02,0.01,5.52c-1.59,1.54-4.31,1.7-6.38,1.38
					c-2.27-0.36-6.39-3.04-6.9-3.38c-0.9,1.18-1.76,2.34-2.56,3.45c-2.77,3.83-4.93,7.13-6.41,9.45c-0.05,0.08-0.1,0.16-0.15,0.24
					l-1.92-0.93c0.1-0.15,0.2-0.3,0.3-0.46c1.55-2.32,3.8-5.6,6.69-9.4c0.91-1.21,1.9-2.47,2.94-3.77
					c-0.27-0.29-1.77-1.96-2.98-3.69c-2.2,0.86-6.79,0.9-7.38,0.9c-0.1,1.48-0.18,2.93-0.23,4.29c-0.2,4.72-0.18,8.67-0.14,11.42
					c0,0.11,0,0.21,0.01,0.32l-2.11-1.02c0.02-2.74,0.1-6.44,0.38-10.82c0.09-1.51,0.22-3.11,0.37-4.76
					c-0.58-0.15-5.35-1.37-7.16-2.81c-1.63-1.31-3.35-3.42-3.29-5.64c0.06-2.17,1.84-4.01,4.08-3.72c3.11,0.4,5.72,5.42,6.23,8.17
					c0.03,0.16,0.16,1.96,0.22,3.1c0.06-0.67,0.12-1.33,0.19-2.02c0.14-1.37,0.32-2.73,0.5-4.2c0.11-0.71,0.23-1.42,0.35-2.14
					c0.1-0.72,0.3-1.46,0.45-2.2c0.38-1.7,0.84-3.41,1.35-5.12c-1.2-0.12-5.45-0.62-7.27-1.67c-1.81-1.04-3.83-2.87-4.11-5.07
					c-0.27-2.15,1.21-4.24,3.47-4.3c3.13-0.08,6.47,4.49,7.4,7.13c0.06,0.16,0.51,2.14,0.73,3.22c0.31-1.03,0.62-2.05,0.97-3.08
					c1.01-2.97,2.13-5.94,3.22-8.9c0.34-0.91,0.66-1.82,0.99-2.73c-0.43-0.04-5.5-0.52-7.54-1.7c-1.81-1.04-3.83-2.87-4.11-5.07
					c-0.27-2.15,1.21-4.24,3.47-4.3c3.13-0.08,6.47,4.49,7.4,7.13c0.07,0.2,0.71,3.04,0.84,3.77c0.72-2,1.43-4.01,2.04-6.01
					c0.85-2.76,1.53-5.52,1.99-8.24c-0.2-0.02-5.49-0.5-7.58-1.7c-1.81-1.04-3.83-2.87-4.11-5.07c-0.27-2.15,1.21-4.24,3.47-4.3
					c3.13-0.08,6.47,4.49,7.4,7.13c0.06,0.17,0.55,2.33,0.76,3.37c0.1,0,0.08,0,0.18,0c0.46-2.92,0.54-5.81,0.47-8.51
					c-0.03-1.57-0.15-3.06-0.3-4.52c-1,0.01-5.54,0.01-7.54-0.86c-1.92-0.84-4.13-2.44-4.64-4.59c-0.51-2.11,0.74-4.35,2.98-4.65
					c3.11-0.42,6.93,3.75,8.13,6.28c0.07,0.14,0.58,1.61,0.94,2.68c-0.08-0.65-0.14-1.33-0.23-1.96c-0.32-2.35-0.75-4.48-1.15-6.37
					c-0.24-1.07-0.47-2.03-0.7-2.93c-0.98-0.5-4.91-2.56-6.26-4.22c-1.31-1.63-2.54-4.06-2-6.21
					C364.6,204.74,366.74,203.32,368.87,204.09z"/>
				<path class="st4" d="M425.55,252.42c-2.45-0.1-7.35-2.61-7.35-2.61c-0.05-0.03,2.64-2.72,2.83-2.88
					c2.19-1.75,7.45-3.83,10.06-2.1c1.88,1.25,2.02,3.81,0.65,5.48C430.33,252.03,427.64,252.5,425.55,252.42z"/>
			</g>
		</g>
		<g>
			<g>
				<path class="st4" d="M396.94,313.78c0,0-14.87-35.84-23.19-34.28c-8.32,1.56,14.27,57.14,14.27,57.14s-26.16-49.35-44-49.35
					s6.54,54.54,29.14,72.72c0,0-35.68-38.44-56.49-30.13c-20.81,8.31,41.62,47.27,41.62,47.27s-36.27-11.43-32.11-2.6
					c4.16,8.83,15.46,10.39,15.46,10.39l-41.03,2.08h142.71l-32.11-3.12c0,0,33.3-16.62,24.38-23.38
					c-8.92-6.75-28.54,7.79-28.54,7.79s33.89-37.4,27.35-51.43c-6.54-14.03-35.68,25.45-35.68,25.45s23.78-50.39,19.03-59.22
					C412.99,274.3,396.94,313.78,396.94,313.78z"/>
				<path class="st6" d="M396.94,313.78c0,0-14.87-35.84-23.19-34.28c-8.32,1.56,14.27,57.14,14.27,57.14s-26.16-49.35-44-49.35
					s6.54,54.54,29.14,72.72c0,0-35.68-38.44-56.49-30.13c-20.81,8.31,41.62,47.27,41.62,47.27s-36.27-11.43-32.11-2.6
					c4.16,8.83,15.46,10.39,15.46,10.39l-41.03,2.08h142.71l-32.11-3.12c0,0,33.3-16.62,24.38-23.38
					c-8.92-6.75-28.54,7.79-28.54,7.79s33.89-37.4,27.35-51.43c-6.54-14.03-35.68,25.45-35.68,25.45s23.78-50.39,19.03-59.22
					C412.99,274.3,396.94,313.78,396.94,313.78z"/>
			</g>
			<g>
				<path class="st7" d="M401.7,315.66c-13.08,38.65-13.08,66-13.08,66s15.46,0.59,31.51-11.3"/>
				<path class="st7" d="M395.16,336.48c0,0-2.97-14.27-10.7-33.89"/>
				<path class="st7" d="M356.51,313.88l33.3,49.35c0,0,22.6-19.03,30.33-29.73"/>
				<path class="st7" d="M389.21,375.13c0,0-35.08-16.65-49.35-26.16"/>
			</g>
		</g>
	</g>
</g>
<g id="Device">
	<g>
		<path class="st8" d="M357.72,387.02H250.88c-4.37,0-7.92-3.54-7.92-7.92V116.92c0-4.37,3.54-7.92,7.92-7.92h106.84
			c4.37,0,7.92,3.54,7.92,7.92V379.1C365.64,383.47,362.1,387.02,357.72,387.02z"/>
		<g>
			<path class="st9" d="M361.54,157.67c-0.9,0-1.63-0.73-1.63-1.63v-21.85c0-0.9,0.73-1.63,1.63-1.63s1.63,0.73,1.63,1.63v21.85
				C363.18,156.94,362.44,157.67,361.54,157.67z"/>
		</g>
		<g>
			<path class="st9" d="M361.54,177.91c-0.9,0-1.63-0.73-1.63-1.63v-12.21c0-0.9,0.73-1.63,1.63-1.63s1.63,0.73,1.63,1.63v12.21
				C363.18,177.18,362.44,177.91,361.54,177.91z"/>
		</g>
		<path class="st10" d="M348.47,387.02H241.63c-4.37,0-7.92-3.54-7.92-7.92V116.92c0-4.37,3.54-7.92,7.92-7.92h106.84
			c4.37,0,7.92,3.54,7.92,7.92V379.1C356.39,383.47,352.84,387.02,348.47,387.02z"/>
		<rect x="241.88" y="127.51" class="st11" width="106.34" height="238.46"/>
		<line class="st12" x1="279.26" y1="119.89" x2="307.57" y2="119.89"/>
		<path class="st13" d="M291.24,374.41c0,1.95-1.22,3.54-2.72,3.54c-1.5,0-2.72-1.58-2.72-3.54c0-1.95,1.22-3.54,2.72-3.54
			C290.02,370.87,291.24,372.45,291.24,374.41z"/>
		<g>
			<ellipse class="st14" cx="295.05" cy="165.35" rx="18.44" ry="21.5"/>
			<ellipse class="st10" cx="295.05" cy="156.91" rx="7" ry="8.17"/>
			<path class="st10" d="M295.05,167.25c-7.03,0-12.72,5.36-12.72,11.98c0,0.63,0.07,1.23,0.16,1.83c3.29,3.58,7.7,5.79,12.56,5.79
				c4.86,0,9.26-2.21,12.56-5.79c0.1-0.6,0.16-1.21,0.16-1.83C307.77,172.62,302.07,167.25,295.05,167.25z"/>
		</g>
		<g>
			<g>
				<path class="st9" d="M317.47,258.98h-44.84c-2.37,0-4.29-2.08-4.29-4.65v-27.66c0-15.95,11.98-28.93,26.72-28.93
					c14.73,0,26.72,12.98,26.72,28.93v27.66C321.76,256.9,319.84,258.98,317.47,258.98z M276.92,249.68h36.26v-23.01
					c0-10.83-8.13-19.63-18.13-19.63c-10,0-18.13,8.81-18.13,19.63V249.68z"/>
			</g>
			<rect x="263.92" y="240.11" class="st14" width="62.26" height="58.9"/>
			<path class="st10" d="M304.12,280.66l-4.62-11.11c1.96-1.44,3.24-3.87,3.24-6.63c0-4.42-3.31-8.01-7.39-8.01
				s-7.39,3.59-7.39,8.01c0,2.76,1.29,5.19,3.24,6.63l-4.62,11.11H304.12z"/>
		</g>
		<g>
			<path class="st13" d="M276.08,351.94c0.1,0.07,0.21,0.11,0.32,0.11c0.17,0,0.33-0.08,0.44-0.22l71.37-97.09v-1.84l-72.25,98.29
				C275.79,351.42,275.84,351.76,276.08,351.94z"/>
			<path class="st13" d="M333.86,162.49c-0.18,0.24-0.13,0.58,0.12,0.76c0.1,0.07,0.21,0.11,0.32,0.11c0.17,0,0.33-0.08,0.44-0.22
				l13.48-18.34v-1.84L333.86,162.49z"/>
			<path class="st13" d="M241.88,289.46l88.08-119.83c0.18-0.24,0.13-0.58-0.12-0.76c-0.24-0.18-0.58-0.13-0.76,0.12l-87.21,118.63
				V289.46z"/>
			<path class="st13" d="M267.8,363.76c0.17,0,0.33-0.08,0.44-0.22l4.96-6.75c0.18-0.24,0.13-0.58-0.12-0.76
				c-0.24-0.18-0.58-0.13-0.76,0.12l-4.96,6.75c-0.18,0.24-0.13,0.58,0.12,0.76C267.57,363.73,267.68,363.76,267.8,363.76z"/>
			<path class="st13" d="M348.22,274.17l-58.59,79.71c-0.18,0.24-0.13,0.58,0.12,0.76c0.1,0.07,0.21,0.11,0.32,0.11
				c0.17,0,0.33-0.08,0.44-0.22l57.72-78.51V274.17z"/>
		</g>
	</g>
</g>
<g id="Character">
	<g>
		<g>
			<path class="st10" d="M142.41,162.14c0,0,1.4-2.58,1.4-7.05c0-4.47-5.42-7.06-11.77-7.77c-6.36-0.71-9.18,1.88-8.24,3.53
				c0.94,1.65,3.53,3.53,3.53,3.53s-6.36-3.53-10.6-0.71c-4.24,2.83,1.88,1.65,0.71,4.47s-7.77,1.65-9.42,9.18
				c-1.65,7.53,3.06,15.07-1.18,18.37c-4.24,3.3-16.95-1.18-20.72,7.06c-3.77,8.24,1.56,11.89-7.39,17.07s-15.45,10.24-12.86,22.96
				c2.59,12.71,11.07,17.19,27.78,12.71c16.72-4.47,15.54-14.6,20.96-24.96c5.42-10.36,13.89-8.24,16.48-14.13
				c2.59-5.89-0.71-12.95-0.47-18.37c0.24-5.42,5.65-6.59,7.77-12.95C140.51,168.75,142.41,162.14,142.41,162.14z"/>
			<path class="st15" d="M67.82,232.6c-0.42,0.84-0.65,1.78-0.65,2.85"/>
			<path class="st15" d="M133.37,157.47c0,0-2.95-3.4,2.72-1.81c7.13,2-1.24,10.24-4.47,11.9c-6.46,3.32-15,2.26-20.02,8.27
				c-4.53,5.44,1.59,11.11-1.13,15.42c-2.72,4.31-13.6,1.81-17.23,7.03c-3.63,5.21,6.57,16.32-3.85,22.44
				c-7.54,4.43-15.8,6.13-19.79,9.65"/>
			<path class="st15" d="M116.46,177.59c-0.55,1.49-0.88,3.13-0.54,4.59c0.91,3.85,6.12,11.11,1.36,15.19
				c-4.76,4.08-12.92,3.85-14.28,8.61c-1.36,4.76,1.36,17.91-3.17,24.03c-4.53,6.12-13.38,5.67-18.14,9.75
				c-4.76,4.08-4.08,6.35-4.08,6.35"/>
			<path class="st15" d="M118.86,173.11c0,0-0.53,0.71-1.15,1.81"/>
		</g>
		<path class="st8" d="M145.46,232.24l1.16,9.01c0,0,6.01,6.01,10.4,9.71c4.39,3.7,15.72,11.56,15.72,11.56l-5.78,1.62
			c0,0-18.72-11.1-22.42-12.02c-3.7-0.92-6.47-6.24-7.63-7.86C135.75,242.64,142.45,230.62,145.46,232.24z"/>
		<g>
			<path class="st8" d="M156.9,378.67c0,0,5.65,4.78,7.97,6.38c2.32,1.6,5.07,2.32,4.64,3.19c-0.44,0.87-1.6,1.74-7.1,1.02
				c-5.51-0.73-7.1-2.61-8.12-2.9c-1.01-0.29-3.48,0.43-5.36-0.73c-1.88-1.16,1.11-8.07,1.11-8.07S152.84,380.99,156.9,378.67z"/>
			<path class="st8" d="M169.52,388.24c0.02-0.05,0.03-0.09,0.04-0.13c-3.35,0.45-6.54-0.21-9.45-0.89
				c-3.57-0.84-4.61-2.73-7.97-2.73c-1.7,0-3.01-0.32-3.91-0.64c0.02,0.81,0.21,1.48,0.7,1.79c1.88,1.16,4.35,0.43,5.36,0.73
				c1.01,0.29,2.61,2.17,8.12,2.9C167.92,389.98,169.08,389.11,169.52,388.24z"/>
		</g>
		<g>
			<path class="st8" d="M127.27,185.4c0,0,1.09,7.34-0.31,10.3c-1.4,2.97-5.78,3.28-9.52,3.9c-3.75,0.62-12.33,3.9-11.39,12.33
				c0.94,8.43,11.71,26.69,11.71,31.84c0,5.15-3.28,7.8-6.87,17.79c-3.59,9.99-3.12,28.57-2.03,40.58
				c1.09,12.02,4.68,23.41,4.68,23.41s-9.05,14.52-12.96,20.76c-3.9,6.24-17.95,33.4-17.95,33.4s0,0.94,2.19,1.56
				c2.19,0.62,4.68,0.31,4.68,0.31s26.85-32.31,31.84-37.77c4.99-5.46,9.68-14.98,10.3-19.36c0.62-4.37-0.16-31.06-0.16-31.06
				s5.62,13.42,9.99,20.29s7.33,12.96,7.33,12.96s-1.08,9.21,0.01,17.01c1.09,7.8,0.17,32.86,1.26,34.89
				c1.09,2.03,5.32,1.18,6.25,0.25c0.94-0.94,1.38-7.04,1.38-7.04s1.87-19.04,2.97-27.94c1.09-8.9,2.97-16.55,2.34-18.58
				c-0.62-2.03-4.53-23.73-7.49-34.03c-2.97-10.3-12.02-29.5-14.05-34.5c-2.03-4.99-3.12-9.52-2.81-11.08
				c0.31-1.56,6.4-10.93,7.96-13.42c1.56-2.5,2.19-7.02,0.31-11.08c-1.87-4.06,0-9.52-0.31-12.8c-0.31-3.28-5.15-4.68-7.65-5.93
				c-2.5-1.25-3.43-4.06-3.43-6.4s1.4-5.62,1.4-5.62S129.3,185.4,127.27,185.4z"/>
			<path class="st16" d="M146.19,218.79c0,0-1.77-4.64-2.05-6.41"/>
			<path class="st16" d="M125.92,236.17c0,0,2.83,0.63,8.48-2.2"/>
		</g>
		<path class="st10" d="M155.52,291.23c-2.83-9.85-11.23-27.81-13.73-33.74c-12.03,4.5-23.22,0.66-28.49-1.82
			c-0.77,1.66-1.58,3.58-2.42,5.9c-3.59,9.99-3.12,28.57-2.03,40.58c1.09,12.02,4.68,23.41,4.68,23.41s-9.05,14.52-12.96,20.76
			c-3.9,6.24-17.95,33.4-17.95,33.4s0,0.94,2.19,1.56c2.19,0.62,4.68,0.31,4.68,0.31s26.85-32.31,31.84-37.77
			c4.99-5.46,9.68-14.98,10.3-19.36c0.62-4.37-0.16-31.06-0.16-31.06s5.62,13.42,9.99,20.29c4.37,6.87,7.33,12.96,7.33,12.96
			s-1.08,9.21,0.01,17.01c1.09,7.8,0.17,32.86,1.26,34.89c1.09,2.03,5.32,1.18,6.25,0.25c0.94-0.94,1.38-7.04,1.38-7.04
			s1.87-19.04,2.97-27.94c1.09-8.9,2.97-16.55,2.34-18.58C162.39,323.23,158.49,301.53,155.52,291.23z"/>
		<g>
			<polygon class="st17" points="216.66,281.32 216.66,279.28 218.37,279.28 218.37,263.26 216.66,263.26 199.78,263.26 
				198.07,263.26 198.07,279.28 199.78,279.28 199.78,281.32 198.06,281.32 198.06,285.04 204.65,285.04 204.65,283.79 
				211.79,283.79 211.79,285.04 218.37,285.04 218.37,281.32 			"/>
			<path class="st17" d="M225.32,265.62H107.56v-7.15h117.76c0.99,0,1.78,0.8,1.78,1.78v3.58
				C227.1,264.82,226.3,265.62,225.32,265.62z"/>
			<path class="st17" d="M192.09,266.69h-7.18c-0.55,0-0.99-0.44-0.99-0.99v-7.32c0-0.55,0.44-0.99,0.99-0.99h7.18
				c0.55,0,0.99,0.44,0.99,0.99v7.32C193.07,266.25,192.63,266.69,192.09,266.69z"/>
			
				<ellipse transform="matrix(0.1616 -0.9869 0.9869 0.1616 -180.7131 311.3802)" class="st17" cx="92.9" cy="262.04" rx="18.59" ry="18.59"/>
			<path class="st17" d="M96.72,262.04c2.2-1.15,3.69-3.26,3.69-5.68c0-3.65-3.36-6.61-7.51-6.61c-4.15,0-7.51,2.96-7.51,6.61
				c0,2.42,1.48,4.53,3.69,5.68c-2.2,1.15-3.69,3.26-3.69,5.68c0,3.65,3.36,6.61,7.51,6.61c4.15,0,7.51-2.96,7.51-6.61
				C100.41,265.31,98.92,263.2,96.72,262.04z"/>
		</g>
		<g>
			<path class="st8" d="M169.06,265.77c0,0,5.81,2.45,7.62,2.45c1.81,0,3.87-1.81,4.91-4c1.03-2.2,1.03-3.23,0.39-2.71
				c-0.65,0.52-1.29,1.03-1.29,1.03s1.03-2.2-0.13-1.94c-1.16,0.26-1.81,1.55-1.81,1.55s-0.13-1.94-1.16-1.03
				c-1.03,0.9-1.81,2.07-1.81,2.07s-0.13-2.45-0.77-1.81c-0.65,0.65-3.1,4.13-3.1,4.13L169.06,265.77z"/>
			<path class="st8" d="M175.78,263.19c0,0-0.39,3.1-2.32,3.62"/>
			<path class="st8" d="M178.75,262.16c0,0-1.03,4.91-2.58,5.68"/>
			<path class="st8" d="M180.69,262.54c0,0-1.16,3.87-2.07,5.17"/>
		</g>
		<path class="st8" d="M138.66,202.22c-2.24-1.32-3.11-3.97-3.11-6.2c0-2.34,1.4-5.62,1.4-5.62s-7.65-5-9.68-5
			c0,0,1.09,7.34-0.31,10.3c-0.45,0.94-1.19,1.62-2.12,2.12c1.02,3.47,5.18,11.22,7.45,14.01
			C135.13,215.35,136.51,207.91,138.66,202.22z"/>
		<g>
			<path class="st8" d="M115.05,200.62c0,0-5.94,0.66-9.02,6.6c-3.08,5.94-16.53,32.9-15.39,34.51c6.54,9.2,30.33,15.82,32.75,18.24
				c2.42,2.42,5.51,5.31,7.93,6.85s7.26,0.88,8.14,0.44c0.88-0.44,1.54-2.42,0-2.42s-2.33-1.11-2.55-1.99
				c-0.22-0.88,2.42,0.88,3.74,0.22c1.32-0.66-2.95-3.07-4.27-4.17c-1.32-1.1-2.42-2.64-4.18-2.64c-1.76,0-5.06-0.04-5.06-0.04
				s-8.1-5.87-13-10.24c-6.6-5.89-12.41-9.06-12.41-9.06l14.85-24.43"/>
			<path class="st8" d="M136.39,258.89c-1.32-1.1-2.42-2.64-4.18-2.64c-1.76,0-5.06-0.04-5.06-0.04s-8.1-5.87-13-10.24
				c-6.6-5.89-12.41-9.06-12.41-9.06l5.94-9.77c-3.9-2.44-8-2.84-10.07-2.87c-3.96,8.34-7.58,16.58-6.97,17.45
				c6.54,9.2,30.33,15.82,32.75,18.24c2.42,2.42,5.51,5.31,7.93,6.85c2.42,1.54,7.26,0.88,8.14,0.44c0.88-0.44,1.54-2.42,0-2.42
				s-2.33-1.11-2.55-1.99c-0.22-0.88,2.42,0.88,3.74,0.22C141.98,262.4,137.71,259.99,136.39,258.89z"/>
		</g>
		<g>
			<path class="st8" d="M144.44,174.63c-0.78-1.56-0.78-2.81-0.47-5c0.31-2.19-1.56-7.49-1.56-7.49s-0.02,0.01-0.03,0.02
				c-1.91,3.31-7.43,5.27-9.88,6.02c-2.69,0.83,1.24,2.69,0.83,5.17c-0.41,2.48-5.79,3.93-5.79,3.93s-1.54-3.31-3.72-3.31
				c-2.19,0-3.73,5-2.48,7.65c1.25,2.65,3.91,2.05,3.91,2.05s-0.16,4.68,2.81,6.09c2.97,1.4,7.96,3.28,9.83,3.59
				c1.87,0.31,3.75-0.62,4.53-3.43c0.78-2.81,1.25-8.59,1.25-8.59s2.81-1.87,3.59-2.97C148.03,177.28,145.22,176.19,144.44,174.63z"
				/>
			<path class="st9" d="M141.4,174.7c0,0.86-0.28,1.55-0.62,1.55c-0.34,0-0.62-0.69-0.62-1.55c0-0.86,0.28-1.55,0.62-1.55
				C141.12,173.15,141.4,173.84,141.4,174.7z"/>
			<path class="st16" d="M138.71,172.12c0,0,1.65-1.86,2.9-1.45"/>
			<path class="st16" d="M141.61,184.94c0,0-2.28,0.83-4.34-1.03"/>
		</g>
		<g>
			<path class="st8" d="M82.63,379.74c0,0-3.73,7.48-3.59,8.5c0.14,1.02,7.54,6.38,11.02,8.26c3.48,1.88,9.71,2.17,9.28-0.43
				c-0.44-2.61-6.38-4.35-7.83-8.26c-1.45-3.91-2.01-6.19-2.01-6.19S85.93,381.82,82.63,379.74z"/>
			<path class="st8" d="M99.34,396.11c-1.99,0.27-4.73,0.21-7.83-1.14c-5.37-2.33-10.57-7.09-11.99-8.43
				c-0.32,0.82-0.51,1.45-0.48,1.7c0.14,1.02,7.54,6.38,11.02,8.26C93.52,398.38,99.7,398.67,99.34,396.11z"/>
		</g>
	</g>
</g>
</svg>
