<?xml version="1.0" encoding="UTF-8"?>
<svg xmlns="http://www.w3.org/2000/svg" xmlns:xlink="http://www.w3.org/1999/xlink" width="58pt" height="58pt" viewBox="0 0 58 58" version="1.1">
<g id="surface1">
<path style=" stroke:none;fill-rule:nonzero;fill:rgb(83.529412%,96.078431%,98.431373%);fill-opacity:1;" d="M 31.226562 7.734375 L 38.976562 7.734375 L 38.976562 12.203125 L 31.226562 12.203125 Z M 31.226562 7.734375 "/>
<path style=" stroke:none;fill-rule:nonzero;fill:rgb(100%,45.490196%,50.196078%);fill-opacity:1;" d="M 31.023438 7.734375 L 39.179688 7.734375 C 40.679688 7.734375 41.898438 6.515625 41.898438 5.015625 C 41.898438 3.511719 40.679688 2.296875 39.179688 2.296875 L 31.023438 2.296875 C 29.519531 2.296875 28.304688 3.511719 28.304688 5.015625 C 28.304688 6.515625 29.519531 7.734375 31.023438 7.734375 Z M 31.023438 7.734375 "/>
<path style=" stroke:none;fill-rule:nonzero;fill:rgb(36.470588%,87.058824%,96.078431%);fill-opacity:1;" d="M 56.867188 33.957031 C 56.867188 45.96875 47.128906 55.707031 35.117188 55.707031 C 23.105469 55.707031 13.367188 45.96875 13.367188 33.957031 C 13.367188 21.941406 23.105469 12.203125 35.117188 12.203125 C 47.128906 12.203125 56.867188 21.941406 56.867188 33.957031 Z M 56.867188 33.957031 "/>
<path style=" stroke:none;fill-rule:nonzero;fill:rgb(100%,100%,100%);fill-opacity:1;" d="M 51.558594 33.957031 C 51.558594 43.035156 44.199219 50.394531 35.117188 50.394531 C 26.039062 50.394531 18.675781 43.035156 18.675781 33.957031 C 18.675781 24.875 26.039062 17.515625 35.117188 17.515625 C 44.199219 17.515625 51.558594 24.875 51.558594 33.957031 Z M 51.558594 33.957031 "/>
<path style=" stroke:none;fill-rule:nonzero;fill:rgb(100%,51.372549%,55.686275%);fill-opacity:1;" d="M 37.503906 33.957031 C 37.503906 35.273438 36.4375 36.34375 35.117188 36.34375 C 33.800781 36.34375 32.730469 35.273438 32.730469 33.957031 C 32.730469 32.636719 33.800781 31.566406 35.117188 31.566406 C 36.4375 31.566406 37.503906 32.636719 37.503906 33.957031 Z M 37.503906 33.957031 "/>
<path style=" stroke:none;fill-rule:nonzero;fill:rgb(0%,0%,0%);fill-opacity:1;" d="M 57.886719 31.679688 C 57.367188 26.441406 55.027344 21.503906 51.296875 17.773438 C 48.113281 14.589844 44.210938 12.539062 40.109375 11.628906 L 40.109375 8.75 C 41.785156 8.335938 43.03125 6.816406 43.03125 5.015625 C 43.03125 2.890625 41.300781 1.164062 39.179688 1.164062 L 31.023438 1.164062 C 28.898438 1.164062 27.171875 2.890625 27.171875 5.015625 C 27.171875 6.816406 28.417969 8.335938 30.09375 8.75 L 30.09375 11.636719 C 26 12.550781 22.113281 14.597656 18.9375 17.773438 C 18.242188 18.46875 17.601562 19.199219 17.011719 19.957031 C 16.984375 19.957031 16.957031 19.953125 16.925781 19.953125 L 8.855469 19.953125 C 8.230469 19.953125 7.722656 20.460938 7.722656 21.085938 C 7.722656 21.710938 8.230469 22.21875 8.855469 22.21875 L 15.472656 22.21875 C 14.640625 23.609375 13.972656 25.070312 13.460938 26.574219 L 1.132812 26.574219 C 0.507812 26.574219 0 27.078125 0 27.707031 C 0 28.332031 0.507812 28.839844 1.132812 28.839844 L 12.820312 28.839844 C 12.496094 30.273438 12.308594 31.730469 12.257812 33.191406 L 7.25 33.191406 C 6.625 33.191406 6.117188 33.699219 6.117188 34.324219 C 6.117188 34.953125 6.625 35.457031 7.25 35.457031 L 12.296875 35.457031 C 12.390625 36.925781 12.628906 38.382812 13.003906 39.8125 L 5.664062 39.8125 C 5.039062 39.8125 4.53125 40.320312 4.53125 40.945312 C 4.53125 41.570312 5.039062 42.078125 5.664062 42.078125 L 13.726562 42.078125 C 14.835938 45.019531 16.574219 47.773438 18.9375 50.136719 C 22.667969 53.867188 27.613281 56.210938 32.855469 56.726562 C 33.605469 56.800781 34.351562 56.835938 35.101562 56.835938 C 39.523438 56.835938 43.886719 55.558594 47.589844 53.148438 C 48.113281 52.804688 48.261719 52.105469 47.921875 51.578125 C 47.578125 51.054688 46.878906 50.90625 46.351562 51.25 C 38.246094 56.527344 27.390625 55.386719 20.539062 48.535156 C 12.5 40.496094 12.5 27.414062 20.539062 19.375 C 28.578125 11.339844 41.65625 11.339844 49.695312 19.375 C 56.539062 26.21875 57.6875 37.066406 52.425781 45.167969 C 52.085938 45.691406 52.234375 46.394531 52.757812 46.734375 C 53.28125 47.074219 53.984375 46.925781 54.324219 46.402344 C 57.136719 42.074219 58.402344 36.84375 57.886719 31.679688 Z M 29.4375 5.015625 C 29.4375 4.140625 30.148438 3.429688 31.023438 3.429688 L 39.179688 3.429688 C 40.054688 3.429688 40.765625 4.140625 40.765625 5.015625 C 40.765625 5.890625 40.054688 6.601562 39.179688 6.601562 L 31.023438 6.601562 C 30.148438 6.601562 29.4375 5.890625 29.4375 5.015625 Z M 32.359375 11.25 L 32.359375 8.867188 L 37.84375 8.867188 L 37.84375 11.246094 C 36.023438 11.027344 34.179688 11.027344 32.359375 11.25 Z M 32.359375 11.25 "/>
<path style=" stroke:none;fill-rule:nonzero;fill:rgb(0%,0%,0%);fill-opacity:1;" d="M 50.5 48.203125 C 50.199219 48.203125 49.90625 48.324219 49.699219 48.535156 C 49.484375 48.746094 49.367188 49.035156 49.367188 49.335938 C 49.367188 49.632812 49.484375 49.925781 49.699219 50.136719 C 49.90625 50.347656 50.199219 50.46875 50.5 50.46875 C 50.796875 50.46875 51.085938 50.347656 51.300781 50.136719 C 51.511719 49.925781 51.632812 49.632812 51.632812 49.335938 C 51.632812 49.035156 51.511719 48.746094 51.300781 48.535156 C 51.085938 48.324219 50.796875 48.203125 50.5 48.203125 Z M 50.5 48.203125 "/>
<path style=" stroke:none;fill-rule:nonzero;fill:rgb(0%,0%,0%);fill-opacity:1;" d="M 35.117188 16.382812 C 25.429688 16.382812 17.542969 24.265625 17.542969 33.957031 C 17.542969 43.644531 25.429688 51.527344 35.117188 51.527344 C 44.808594 51.527344 52.691406 43.644531 52.691406 33.957031 C 52.691406 24.265625 44.808594 16.382812 35.117188 16.382812 Z M 35.117188 49.261719 C 26.675781 49.261719 19.808594 42.394531 19.808594 33.957031 C 19.808594 25.515625 26.675781 18.648438 35.117188 18.648438 C 43.558594 18.648438 50.425781 25.515625 50.425781 33.957031 C 50.425781 42.394531 43.558594 49.261719 35.117188 49.261719 Z M 35.117188 49.261719 "/>
<path style=" stroke:none;fill-rule:nonzero;fill:rgb(0%,0%,0%);fill-opacity:1;" d="M 42.285156 25.1875 L 36.671875 30.796875 C 36.203125 30.566406 35.675781 30.433594 35.117188 30.433594 C 34.558594 30.433594 34.03125 30.566406 33.5625 30.796875 L 31.050781 28.285156 C 30.609375 27.84375 29.890625 27.84375 29.449219 28.285156 C 29.007812 28.730469 29.007812 29.445312 29.449219 29.890625 L 31.960938 32.398438 C 31.730469 32.871094 31.597656 33.398438 31.597656 33.957031 C 31.597656 35.894531 33.175781 37.476562 35.117188 37.476562 C 37.058594 37.476562 38.636719 35.894531 38.636719 33.957031 C 38.636719 33.398438 38.507812 32.871094 38.273438 32.398438 L 43.722656 26.953125 L 43.886719 26.789062 C 44.328125 26.347656 44.328125 25.628906 43.886719 25.1875 C 43.441406 24.746094 42.726562 24.746094 42.285156 25.1875 Z M 35.117188 35.210938 C 34.425781 35.210938 33.863281 34.648438 33.863281 33.957031 C 33.863281 33.261719 34.425781 32.699219 35.117188 32.699219 C 35.808594 32.699219 36.371094 33.261719 36.371094 33.957031 C 36.371094 34.648438 35.808594 35.210938 35.117188 35.210938 Z M 35.117188 35.210938 "/>
<path style=" stroke:none;fill-rule:nonzero;fill:rgb(0%,0%,0%);fill-opacity:1;" d="M 47.230469 32.835938 L 46.179688 32.835938 C 45.554688 32.835938 45.046875 33.34375 45.046875 33.96875 C 45.046875 34.59375 45.554688 35.101562 46.179688 35.101562 L 47.230469 35.101562 C 47.855469 35.101562 48.363281 34.59375 48.363281 33.96875 C 48.363281 33.34375 47.855469 32.835938 47.230469 32.835938 Z M 47.230469 32.835938 "/>
<path style=" stroke:none;fill-rule:nonzero;fill:rgb(0%,0%,0%);fill-opacity:1;" d="M 24.054688 32.808594 L 23.003906 32.808594 C 22.378906 32.808594 21.871094 33.316406 21.871094 33.941406 C 21.871094 34.566406 22.378906 35.074219 23.003906 35.074219 L 24.054688 35.074219 C 24.679688 35.074219 25.1875 34.566406 25.1875 33.941406 C 25.1875 33.316406 24.679688 32.808594 24.054688 32.808594 Z M 24.054688 32.808594 "/>
<path style=" stroke:none;fill-rule:nonzero;fill:rgb(0%,0%,0%);fill-opacity:1;" d="M 35.132812 24.027344 C 35.757812 24.027344 36.265625 23.519531 36.265625 22.890625 L 36.265625 21.84375 C 36.265625 21.21875 35.757812 20.710938 35.132812 20.710938 C 34.507812 20.710938 34 21.21875 34 21.84375 L 34 22.890625 C 34 23.519531 34.507812 24.027344 35.132812 24.027344 Z M 35.132812 24.027344 "/>
<path style=" stroke:none;fill-rule:nonzero;fill:rgb(0%,0%,0%);fill-opacity:1;" d="M 35.105469 43.886719 C 34.476562 43.886719 33.972656 44.390625 33.972656 45.019531 L 33.972656 46.066406 C 33.972656 46.691406 34.476562 47.199219 35.105469 47.199219 C 35.730469 47.199219 36.238281 46.691406 36.238281 46.066406 L 36.238281 45.019531 C 36.238281 44.390625 35.730469 43.886719 35.105469 43.886719 Z M 35.105469 43.886719 "/>
<path style=" stroke:none;fill-rule:nonzero;fill:rgb(0%,0%,0%);fill-opacity:1;" d="M 1.132812 39.8125 C 0.835938 39.8125 0.542969 39.933594 0.332031 40.144531 C 0.121094 40.355469 0 40.648438 0 40.945312 C 0 41.242188 0.121094 41.535156 0.332031 41.746094 C 0.542969 41.957031 0.835938 42.078125 1.132812 42.078125 C 1.429688 42.078125 1.722656 41.957031 1.933594 41.746094 C 2.144531 41.535156 2.265625 41.242188 2.265625 40.945312 C 2.265625 40.648438 2.144531 40.355469 1.933594 40.144531 C 1.722656 39.933594 1.429688 39.8125 1.132812 39.8125 Z M 1.132812 39.8125 "/>
</g>
</svg>
