<?xml version="1.0" encoding="UTF-8"?>
<svg xmlns="http://www.w3.org/2000/svg" xmlns:xlink="http://www.w3.org/1999/xlink" width="58pt" height="58pt" viewBox="0 0 58 58" version="1.1">
<g id="surface1">
<path style=" stroke:none;fill-rule:nonzero;fill:rgb(100%,71.372549%,33.333333%);fill-opacity:1;" d="M 20.84375 17.21875 L 37.15625 17.21875 C 39.160156 17.21875 40.78125 18.839844 40.78125 20.84375 L 40.78125 37.15625 C 40.78125 39.160156 39.160156 40.78125 37.15625 40.78125 L 20.84375 40.78125 C 18.839844 40.78125 17.21875 39.160156 17.21875 37.15625 L 17.21875 20.84375 C 17.21875 18.839844 18.839844 17.21875 20.84375 17.21875 Z M 20.84375 17.21875 "/>
<path style=" stroke:none;fill-rule:nonzero;fill:rgb(100%,65.490196%,20%);fill-opacity:1;" d="M 39.875 38.96875 L 23.5625 38.96875 C 21.558594 38.96875 19.9375 37.347656 19.9375 35.34375 L 19.9375 19.03125 C 19.941406 18.410156 20.105469 17.800781 20.417969 17.261719 C 18.597656 17.472656 17.222656 19.011719 17.21875 20.84375 L 17.21875 37.15625 C 17.21875 39.160156 18.839844 40.78125 20.84375 40.78125 L 37.15625 40.78125 C 38.464844 40.777344 39.667969 40.070312 40.300781 38.925781 C 40.160156 38.949219 40.019531 38.960938 39.875 38.96875 Z M 39.875 38.96875 "/>
<path style=" stroke:none;fill-rule:nonzero;fill:rgb(49.411765%,83.921569%,24.313725%);fill-opacity:1;" d="M 30.8125 7.25 C 30.8125 8.25 30 9.0625 29 9.0625 C 28 9.0625 27.1875 8.25 27.1875 7.25 C 27.1875 6.25 28 5.4375 29 5.4375 C 30 5.4375 30.8125 6.25 30.8125 7.25 Z M 30.8125 7.25 "/>
<path style=" stroke:none;fill-rule:nonzero;fill:rgb(49.411765%,83.921569%,24.313725%);fill-opacity:1;" d="M 45.3125 6.34375 C 45.3125 7.34375 44.5 8.15625 43.5 8.15625 C 42.5 8.15625 41.6875 7.34375 41.6875 6.34375 C 41.6875 5.34375 42.5 4.53125 43.5 4.53125 C 44.5 4.53125 45.3125 5.34375 45.3125 6.34375 Z M 45.3125 6.34375 "/>
<path style=" stroke:none;fill-rule:nonzero;fill:rgb(49.411765%,83.921569%,24.313725%);fill-opacity:1;" d="M 18.125 4.53125 C 18.125 5.53125 17.3125 6.34375 16.3125 6.34375 C 15.3125 6.34375 14.5 5.53125 14.5 4.53125 C 14.5 3.53125 15.3125 2.71875 16.3125 2.71875 C 17.3125 2.71875 18.125 3.53125 18.125 4.53125 Z M 18.125 4.53125 "/>
<path style=" stroke:none;fill-rule:nonzero;fill:rgb(49.411765%,83.921569%,24.313725%);fill-opacity:1;" d="M 38.0625 53.46875 C 38.0625 54.46875 37.25 55.28125 36.25 55.28125 C 35.25 55.28125 34.4375 54.46875 34.4375 53.46875 C 34.4375 52.46875 35.25 51.65625 36.25 51.65625 C 37.25 51.65625 38.0625 52.46875 38.0625 53.46875 Z M 38.0625 53.46875 "/>
<path style=" stroke:none;fill-rule:nonzero;fill:rgb(49.411765%,83.921569%,24.313725%);fill-opacity:1;" d="M 46.21875 48.03125 C 46.21875 49.03125 45.40625 49.84375 44.40625 49.84375 C 43.40625 49.84375 42.59375 49.03125 42.59375 48.03125 C 42.59375 47.03125 43.40625 46.21875 44.40625 46.21875 C 45.40625 46.21875 46.21875 47.03125 46.21875 48.03125 Z M 46.21875 48.03125 "/>
<path style=" stroke:none;fill-rule:nonzero;fill:rgb(49.411765%,83.921569%,24.313725%);fill-opacity:1;" d="M 18.125 53.46875 C 18.125 54.46875 17.3125 55.28125 16.3125 55.28125 C 15.3125 55.28125 14.5 54.46875 14.5 53.46875 C 14.5 52.46875 15.3125 51.65625 16.3125 51.65625 C 17.3125 51.65625 18.125 52.46875 18.125 53.46875 Z M 18.125 53.46875 "/>
<path style=" stroke:none;fill-rule:nonzero;fill:rgb(49.411765%,83.921569%,24.313725%);fill-opacity:1;" d="M 51.597656 16.707031 C 51.867188 17.671875 51.304688 18.671875 50.339844 18.941406 C 49.378906 19.210938 48.375 18.648438 48.105469 17.6875 C 47.835938 16.722656 48.398438 15.722656 49.363281 15.453125 C 50.328125 15.179688 51.328125 15.742188 51.597656 16.707031 Z M 51.597656 16.707031 "/>
<path style=" stroke:none;fill-rule:nonzero;fill:rgb(49.411765%,83.921569%,24.313725%);fill-opacity:1;" d="M 55.230469 39.363281 C 55.503906 40.324219 54.941406 41.328125 53.976562 41.597656 C 53.011719 41.867188 52.011719 41.304688 51.742188 40.339844 C 51.472656 39.375 52.035156 38.375 52.996094 38.105469 C 53.960938 37.835938 54.960938 38.398438 55.230469 39.363281 Z M 55.230469 39.363281 "/>
<path style=" stroke:none;fill-rule:nonzero;fill:rgb(49.411765%,83.921569%,24.313725%);fill-opacity:1;" d="M 55.226562 24.863281 C 55.496094 25.824219 54.933594 26.828125 53.96875 27.097656 C 53.007812 27.367188 52.003906 26.804688 51.734375 25.839844 C 51.464844 24.875 52.027344 23.875 52.992188 23.605469 C 53.957031 23.335938 54.957031 23.898438 55.226562 24.863281 Z M 55.226562 24.863281 "/>
<path style=" stroke:none;fill-rule:nonzero;fill:rgb(49.411765%,83.921569%,24.313725%);fill-opacity:1;" d="M 8.648438 15.480469 C 9.613281 15.75 10.175781 16.75 9.90625 17.714844 C 9.636719 18.679688 8.632812 19.242188 7.671875 18.972656 C 6.707031 18.699219 6.144531 17.699219 6.414062 16.738281 C 6.683594 15.773438 7.683594 15.210938 8.648438 15.480469 Z M 8.648438 15.480469 "/>
<path style=" stroke:none;fill-rule:nonzero;fill:rgb(49.411765%,83.921569%,24.313725%);fill-opacity:1;" d="M 8.515625 41.742188 C 9.496094 41.949219 10.121094 42.910156 9.914062 43.890625 C 9.707031 44.871094 8.746094 45.496094 7.765625 45.289062 C 6.785156 45.082031 6.160156 44.121094 6.367188 43.140625 C 6.574219 42.160156 7.535156 41.535156 8.515625 41.742188 Z M 8.515625 41.742188 "/>
<path style=" stroke:none;fill-rule:nonzero;fill:rgb(49.411765%,83.921569%,24.313725%);fill-opacity:1;" d="M 4.460938 32.625 C 5.195312 32.652344 5.878906 32.234375 6.179688 31.5625 C 6.484375 30.890625 6.351562 30.101562 5.84375 29.566406 L 5.4375 29.90625 L 5.84375 29.566406 C 5.28125 28.972656 4.394531 28.832031 3.671875 29.21875 C 2.953125 29.605469 2.582031 30.425781 2.765625 31.222656 C 2.949219 32.019531 3.644531 32.59375 4.460938 32.625 Z M 4.460938 32.625 "/>
<path style=" stroke:none;fill-rule:nonzero;fill:rgb(0%,42.745098%,94.117647%);fill-opacity:1;" d="M 25.375 26.28125 L 32.625 26.28125 C 33.625 26.28125 34.4375 27.09375 34.4375 28.09375 L 34.4375 35.34375 C 34.4375 36.34375 33.625 37.15625 32.625 37.15625 L 25.375 37.15625 C 24.375 37.15625 23.5625 36.34375 23.5625 35.34375 L 23.5625 28.09375 C 23.5625 27.09375 24.375 26.28125 25.375 26.28125 Z M 25.375 26.28125 "/>
<path style=" stroke:none;fill-rule:nonzero;fill:rgb(0%,36.862745%,80.784314%);fill-opacity:1;" d="M 25.375 33.53125 L 25.375 26.28125 C 24.375 26.285156 23.566406 27.09375 23.5625 28.09375 L 23.5625 35.34375 C 23.566406 36.34375 24.375 37.152344 25.375 37.15625 L 32.625 37.15625 C 33.625 37.152344 34.433594 36.34375 34.4375 35.34375 L 27.1875 35.34375 C 26.1875 35.339844 25.378906 34.53125 25.375 33.53125 Z M 25.375 33.53125 "/>
<path style=" stroke:none;fill-rule:nonzero;fill:rgb(94.509804%,94.901961%,94.901961%);fill-opacity:1;" d="M 30.761719 30.308594 C 31.03125 31.273438 30.46875 32.273438 29.503906 32.546875 C 28.539062 32.816406 27.539062 32.253906 27.269531 31.289062 C 27 30.324219 27.5625 29.324219 28.523438 29.054688 C 29.488281 28.785156 30.488281 29.347656 30.761719 30.308594 Z M 30.761719 30.308594 "/>
<path style=" stroke:none;fill-rule:nonzero;fill:rgb(0%,0%,0%);fill-opacity:1;" d="M 24.46875 9.96875 L 26.28125 9.96875 L 26.28125 11.78125 L 24.46875 11.78125 Z M 24.46875 9.96875 "/>
<path style=" stroke:none;fill-rule:nonzero;fill:rgb(0%,0%,0%);fill-opacity:1;" d="M 48.03125 31.71875 L 49.84375 31.71875 L 49.84375 33.53125 L 48.03125 33.53125 Z M 48.03125 31.71875 "/>
<path style=" stroke:none;fill-rule:nonzero;fill:rgb(0%,0%,0%);fill-opacity:1;" d="M 31.71875 46.21875 L 33.53125 46.21875 L 33.53125 48.03125 L 31.71875 48.03125 Z M 31.71875 46.21875 "/>
<path style=" stroke:none;fill-rule:nonzero;fill:rgb(0%,0%,0%);fill-opacity:1;" d="M 24.46875 48.9375 L 26.28125 48.9375 L 26.28125 50.75 L 24.46875 50.75 Z M 24.46875 48.9375 "/>
<path style=" stroke:none;fill-rule:nonzero;fill:rgb(0%,0%,0%);fill-opacity:1;" d="M 9.96875 28.09375 L 11.78125 28.09375 L 11.78125 29.90625 L 9.96875 29.90625 Z M 9.96875 28.09375 "/>
<path style=" stroke:none;fill-rule:nonzero;fill:rgb(0%,0%,0%);fill-opacity:1;" d="M 31.71875 9.96875 L 33.53125 9.96875 L 33.53125 11.78125 L 31.71875 11.78125 Z M 31.71875 9.96875 "/>
<path style=" stroke:none;fill-rule:nonzero;fill:rgb(0%,0%,0%);fill-opacity:1;" d="M 46.21875 24.46875 L 48.03125 24.46875 L 48.03125 26.28125 L 46.21875 26.28125 Z M 46.21875 24.46875 "/>
<path style=" stroke:none;fill-rule:nonzero;fill:rgb(0%,0%,0%);fill-opacity:1;" d="M 41.6875 15.40625 L 43.5 15.40625 L 43.5 17.21875 L 41.6875 17.21875 Z M 41.6875 15.40625 "/>
<path style=" stroke:none;fill-rule:nonzero;fill:rgb(0%,0%,0%);fill-opacity:1;" d="M 14.5 15.40625 L 16.3125 15.40625 L 16.3125 17.21875 L 14.5 17.21875 Z M 14.5 15.40625 "/>
<path style=" stroke:none;fill-rule:nonzero;fill:rgb(0%,0%,0%);fill-opacity:1;" d="M 41.6875 40.78125 L 43.5 40.78125 L 43.5 42.59375 L 41.6875 42.59375 Z M 41.6875 40.78125 "/>
<path style=" stroke:none;fill-rule:nonzero;fill:rgb(0%,0%,0%);fill-opacity:1;" d="M 14.5 40.78125 L 16.3125 40.78125 L 16.3125 42.59375 L 14.5 42.59375 Z M 14.5 40.78125 "/>
<path style=" stroke:none;fill-rule:nonzero;fill:rgb(0%,0%,0%);fill-opacity:1;" d="M 28.894531 28.09375 C 27.585938 28.136719 26.492188 29.105469 26.296875 30.398438 C 26.101562 31.691406 26.855469 32.941406 28.09375 33.371094 L 28.09375 35.34375 L 29.90625 35.34375 L 29.90625 33.363281 C 31.175781 32.917969 31.925781 31.613281 31.671875 30.292969 C 31.417969 28.972656 30.238281 28.035156 28.894531 28.09375 Z M 29.90625 30.777344 C 29.925781 31.277344 29.535156 31.699219 29.035156 31.71875 C 28.796875 31.726562 28.5625 31.640625 28.382812 31.476562 C 28.117188 31.230469 28.023438 30.84375 28.148438 30.5 C 28.277344 30.15625 28.597656 29.921875 28.964844 29.90625 L 29 29.90625 C 29.488281 29.90625 29.886719 30.289062 29.90625 30.777344 Z M 29.90625 30.777344 "/>
<path style=" stroke:none;fill-rule:nonzero;fill:rgb(0%,0%,0%);fill-opacity:1;" d="M 33.53125 25.542969 L 33.53125 24.46875 C 33.53125 21.964844 31.503906 19.9375 29 19.9375 C 26.496094 19.9375 24.46875 21.964844 24.46875 24.46875 L 24.46875 25.542969 C 23.386719 25.925781 22.660156 26.945312 22.65625 28.09375 L 22.65625 35.34375 C 22.65625 36.84375 23.875 38.0625 25.375 38.0625 L 32.625 38.0625 C 34.125 38.0625 35.34375 36.84375 35.34375 35.34375 L 35.34375 28.09375 C 35.339844 26.945312 34.613281 25.925781 33.53125 25.542969 Z M 26.28125 24.46875 C 26.28125 22.96875 27.5 21.75 29 21.75 C 30.5 21.75 31.71875 22.96875 31.71875 24.46875 L 31.71875 25.375 L 26.28125 25.375 Z M 33.53125 35.34375 C 33.53125 35.84375 33.125 36.25 32.625 36.25 L 25.375 36.25 C 24.875 36.25 24.46875 35.84375 24.46875 35.34375 L 24.46875 28.09375 C 24.46875 27.59375 24.875 27.1875 25.375 27.1875 L 32.625 27.1875 C 33.125 27.1875 33.53125 27.59375 33.53125 28.09375 Z M 33.53125 35.34375 "/>
<path style=" stroke:none;fill-rule:nonzero;fill:rgb(0%,0%,0%);fill-opacity:1;" d="M 53.46875 37.15625 C 53.066406 37.15625 52.667969 37.25 52.304688 37.429688 L 50.21875 35.34375 L 41.6875 35.34375 L 41.6875 33.53125 L 46.21875 33.53125 L 46.21875 31.71875 L 41.6875 31.71875 L 41.6875 29.90625 L 46.433594 29.90625 L 51.585938 27.328125 C 52.519531 28.222656 53.949219 28.335938 55.007812 27.601562 C 56.066406 26.867188 56.464844 25.488281 55.957031 24.300781 C 55.449219 23.117188 54.179688 22.453125 52.914062 22.710938 C 51.652344 22.972656 50.746094 24.085938 50.75 25.375 C 50.753906 25.484375 50.765625 25.59375 50.785156 25.703125 L 46.003906 28.09375 L 41.6875 28.09375 L 41.6875 26.28125 L 44.40625 26.28125 L 44.40625 24.46875 L 41.6875 24.46875 L 41.6875 22.65625 L 45.6875 22.65625 L 48.679688 19.664062 C 49.042969 19.84375 49.441406 19.9375 49.84375 19.9375 C 51.34375 19.9375 52.5625 18.71875 52.5625 17.21875 C 52.5625 15.71875 51.34375 14.5 49.84375 14.5 C 48.34375 14.5 47.125 15.71875 47.125 17.21875 C 47.125 17.621094 47.21875 18.019531 47.398438 18.382812 L 44.9375 20.84375 L 41.6875 20.84375 C 41.683594 18.34375 39.65625 16.316406 37.15625 16.3125 L 37.15625 13.96875 L 42.335938 8.789062 C 42.699219 8.96875 43.097656 9.0625 43.5 9.0625 C 45 9.0625 46.21875 7.84375 46.21875 6.34375 C 46.21875 4.84375 45 3.625 43.5 3.625 C 42 3.625 40.78125 4.84375 40.78125 6.34375 C 40.78125 6.746094 40.875 7.144531 41.054688 7.507812 L 35.34375 13.21875 L 35.34375 16.3125 L 33.53125 16.3125 L 33.53125 13.59375 L 31.71875 13.59375 L 31.71875 16.3125 L 29.90625 16.3125 L 29.90625 9.800781 C 31.15625 9.359375 31.902344 8.085938 31.679688 6.777344 C 31.457031 5.472656 30.324219 4.519531 29 4.519531 C 27.675781 4.519531 26.542969 5.472656 26.320312 6.777344 C 26.097656 8.085938 26.84375 9.359375 28.09375 9.800781 L 28.09375 16.3125 L 26.28125 16.3125 L 26.28125 13.59375 L 24.46875 13.59375 L 24.46875 16.3125 L 22.65625 16.3125 L 22.65625 9.59375 L 18.757812 5.695312 C 18.9375 5.332031 19.03125 4.933594 19.03125 4.53125 C 19.03125 3.03125 17.8125 1.8125 16.3125 1.8125 C 14.8125 1.8125 13.59375 3.03125 13.59375 4.53125 C 13.59375 6.03125 14.8125 7.25 16.3125 7.25 C 16.714844 7.25 17.113281 7.15625 17.476562 6.976562 L 20.84375 10.34375 L 20.84375 16.3125 C 18.34375 16.316406 16.316406 18.34375 16.3125 20.84375 L 13.0625 20.84375 L 10.601562 18.382812 C 10.78125 18.019531 10.875 17.621094 10.875 17.21875 C 10.875 15.71875 9.65625 14.5 8.15625 14.5 C 6.65625 14.5 5.4375 15.71875 5.4375 17.21875 C 5.4375 18.71875 6.65625 19.9375 8.15625 19.9375 C 8.558594 19.9375 8.957031 19.84375 9.320312 19.664062 L 12.3125 22.65625 L 16.3125 22.65625 L 16.3125 24.46875 L 10.546875 24.46875 L 5.800781 28.421875 C 5.410156 28.210938 4.976562 28.097656 4.53125 28.09375 C 3.03125 28.09375 1.8125 29.3125 1.8125 30.8125 C 1.8125 32.3125 3.03125 33.53125 4.53125 33.53125 C 6.03125 33.53125 7.25 32.3125 7.25 30.8125 C 7.25 30.449219 7.175781 30.089844 7.035156 29.753906 L 11.203125 26.28125 L 16.3125 26.28125 L 16.3125 28.09375 L 13.59375 28.09375 L 13.59375 29.90625 L 16.3125 29.90625 L 16.3125 31.71875 L 8.15625 31.71875 L 8.15625 33.53125 L 16.3125 33.53125 L 16.3125 35.34375 L 11.296875 35.34375 L 7.644531 40.820312 C 7.515625 40.796875 7.382812 40.785156 7.25 40.78125 C 5.949219 40.769531 4.820312 41.671875 4.542969 42.941406 C 4.265625 44.210938 4.917969 45.5 6.105469 46.03125 C 7.292969 46.5625 8.6875 46.1875 9.449219 45.132812 C 10.210938 44.078125 10.128906 42.636719 9.253906 41.675781 L 12.265625 37.15625 L 16.3125 37.15625 C 16.316406 39.65625 18.34375 41.683594 20.84375 41.6875 L 20.84375 47.65625 L 17.476562 51.023438 C 17.113281 50.84375 16.714844 50.75 16.3125 50.75 C 14.8125 50.75 13.59375 51.96875 13.59375 53.46875 C 13.59375 54.96875 14.8125 56.1875 16.3125 56.1875 C 17.8125 56.1875 19.03125 54.96875 19.03125 53.46875 C 19.03125 53.066406 18.9375 52.667969 18.757812 52.304688 L 22.65625 48.40625 L 22.65625 41.6875 L 24.46875 41.6875 L 24.46875 47.125 L 26.28125 47.125 L 26.28125 41.6875 L 28.09375 41.6875 L 28.09375 49.441406 L 33.597656 52.882812 C 33.292969 54.195312 33.976562 55.535156 35.21875 56.054688 C 36.460938 56.574219 37.898438 56.121094 38.617188 54.984375 C 39.335938 53.84375 39.128906 52.355469 38.128906 51.457031 C 37.125 50.558594 35.621094 50.511719 34.566406 51.351562 L 29.90625 48.433594 L 29.90625 41.6875 L 31.71875 41.6875 L 31.71875 44.40625 L 33.53125 44.40625 L 33.53125 41.6875 L 35.34375 41.6875 L 35.34375 48.9375 L 41.855469 48.9375 C 42.296875 50.1875 43.570312 50.933594 44.878906 50.710938 C 46.183594 50.488281 47.136719 49.355469 47.136719 48.03125 C 47.136719 46.707031 46.183594 45.574219 44.878906 45.351562 C 43.570312 45.128906 42.296875 45.875 41.855469 47.125 L 37.15625 47.125 L 37.15625 41.6875 C 39.65625 41.683594 41.683594 39.65625 41.6875 37.15625 L 49.46875 37.15625 L 51.023438 38.710938 C 50.84375 39.074219 50.75 39.472656 50.75 39.875 C 50.75 41.375 51.96875 42.59375 53.46875 42.59375 C 54.96875 42.59375 56.1875 41.375 56.1875 39.875 C 56.1875 38.375 54.96875 37.15625 53.46875 37.15625 Z M 53.46875 24.46875 C 53.96875 24.46875 54.375 24.875 54.375 25.375 C 54.375 25.875 53.96875 26.28125 53.46875 26.28125 C 52.96875 26.28125 52.5625 25.875 52.5625 25.375 C 52.5625 24.875 52.96875 24.46875 53.46875 24.46875 Z M 49.84375 16.3125 C 50.34375 16.3125 50.75 16.71875 50.75 17.21875 C 50.75 17.71875 50.34375 18.125 49.84375 18.125 C 49.34375 18.125 48.9375 17.71875 48.9375 17.21875 C 48.9375 16.71875 49.34375 16.3125 49.84375 16.3125 Z M 43.5 5.4375 C 44 5.4375 44.40625 5.84375 44.40625 6.34375 C 44.40625 6.84375 44 7.25 43.5 7.25 C 43 7.25 42.59375 6.84375 42.59375 6.34375 C 42.59375 5.84375 43 5.4375 43.5 5.4375 Z M 29 6.34375 C 29.5 6.34375 29.90625 6.75 29.90625 7.25 C 29.90625 7.75 29.5 8.15625 29 8.15625 C 28.5 8.15625 28.09375 7.75 28.09375 7.25 C 28.09375 6.75 28.5 6.34375 29 6.34375 Z M 15.40625 4.53125 C 15.40625 4.03125 15.8125 3.625 16.3125 3.625 C 16.8125 3.625 17.21875 4.03125 17.21875 4.53125 C 17.21875 5.03125 16.8125 5.4375 16.3125 5.4375 C 15.8125 5.4375 15.40625 5.03125 15.40625 4.53125 Z M 7.25 17.21875 C 7.25 16.71875 7.65625 16.3125 8.15625 16.3125 C 8.65625 16.3125 9.0625 16.71875 9.0625 17.21875 C 9.0625 17.71875 8.65625 18.125 8.15625 18.125 C 7.65625 18.125 7.25 17.71875 7.25 17.21875 Z M 4.53125 31.71875 C 4.03125 31.71875 3.625 31.3125 3.625 30.8125 C 3.625 30.3125 4.03125 29.90625 4.53125 29.90625 C 5.03125 29.90625 5.4375 30.3125 5.4375 30.8125 C 5.4375 31.3125 5.03125 31.71875 4.53125 31.71875 Z M 7.25 44.40625 C 6.75 44.40625 6.34375 44 6.34375 43.5 C 6.34375 43 6.75 42.59375 7.25 42.59375 C 7.75 42.59375 8.15625 43 8.15625 43.5 C 8.15625 44 7.75 44.40625 7.25 44.40625 Z M 16.3125 54.375 C 15.8125 54.375 15.40625 53.96875 15.40625 53.46875 C 15.40625 52.96875 15.8125 52.5625 16.3125 52.5625 C 16.8125 52.5625 17.21875 52.96875 17.21875 53.46875 C 17.21875 53.96875 16.8125 54.375 16.3125 54.375 Z M 36.25 52.5625 C 36.75 52.5625 37.15625 52.96875 37.15625 53.46875 C 37.15625 53.96875 36.75 54.375 36.25 54.375 C 35.75 54.375 35.34375 53.96875 35.34375 53.46875 C 35.34375 52.96875 35.75 52.5625 36.25 52.5625 Z M 44.40625 47.125 C 44.90625 47.125 45.3125 47.53125 45.3125 48.03125 C 45.3125 48.53125 44.90625 48.9375 44.40625 48.9375 C 43.90625 48.9375 43.5 48.53125 43.5 48.03125 C 43.5 47.53125 43.90625 47.125 44.40625 47.125 Z M 39.875 37.15625 C 39.875 38.65625 38.65625 39.875 37.15625 39.875 L 20.84375 39.875 C 19.34375 39.875 18.125 38.65625 18.125 37.15625 L 18.125 20.84375 C 18.125 19.34375 19.34375 18.125 20.84375 18.125 L 37.15625 18.125 C 38.65625 18.125 39.875 19.34375 39.875 20.84375 Z M 53.46875 40.78125 C 52.96875 40.78125 52.5625 40.375 52.5625 39.875 C 52.5625 39.375 52.96875 38.96875 53.46875 38.96875 C 53.96875 38.96875 54.375 39.375 54.375 39.875 C 54.375 40.375 53.96875 40.78125 53.46875 40.78125 Z M 53.46875 40.78125 "/>
</g>
</svg>
