<?xml version="1.0" encoding="UTF-8"?>
<svg xmlns="http://www.w3.org/2000/svg" xmlns:xlink="http://www.w3.org/1999/xlink" width="58pt" height="58pt" viewBox="0 0 58 58" version="1.1">
<g id="surface1">
<path style=" stroke:none;fill-rule:nonzero;fill:rgb(34.117647%,64.313725%,100%);fill-opacity:1;" d="M 8.15625 13.59375 L 49.84375 13.59375 C 51.847656 13.59375 53.46875 15.214844 53.46875 17.21875 L 53.46875 44.40625 C 53.46875 46.410156 51.847656 48.03125 49.84375 48.03125 L 8.15625 48.03125 C 6.152344 48.03125 4.53125 46.410156 4.53125 44.40625 L 4.53125 17.21875 C 4.53125 15.214844 6.152344 13.59375 8.15625 13.59375 Z M 8.15625 13.59375 "/>
<path style=" stroke:none;fill-rule:nonzero;fill:rgb(100%,85.490196%,66.666667%);fill-opacity:1;" d="M 8.15625 17.21875 L 49.84375 17.21875 L 49.84375 44.40625 L 8.15625 44.40625 Z M 8.15625 17.21875 "/>
<path style=" stroke:none;fill-rule:nonzero;fill:rgb(100%,76.862745%,46.666667%);fill-opacity:1;" d="M 23.5625 44.40625 L 49.84375 44.40625 L 49.84375 17.21875 C 49.84375 32.246094 38.089844 44.40625 23.5625 44.40625 Z M 23.5625 44.40625 "/>
<path style=" stroke:none;fill-rule:nonzero;fill:rgb(0%,42.745098%,94.117647%);fill-opacity:1;" d="M 2.71875 48.03125 L 55.28125 48.03125 L 55.28125 51.65625 C 55.28125 53.660156 53.660156 55.28125 51.65625 55.28125 L 6.34375 55.28125 C 4.339844 55.28125 2.71875 53.660156 2.71875 51.65625 Z M 2.71875 48.03125 "/>
<path style=" stroke:none;fill-rule:nonzero;fill:rgb(14.117647%,53.333333%,100%);fill-opacity:1;" d="M 49.84375 13.59375 L 48.03125 13.59375 C 50.035156 13.59375 51.65625 15.214844 51.65625 17.21875 L 51.65625 44.40625 C 51.65625 46.410156 50.035156 48.03125 48.03125 48.03125 L 49.84375 48.03125 C 51.847656 48.03125 53.46875 46.410156 53.46875 44.40625 L 53.46875 17.21875 C 53.46875 15.214844 51.847656 13.59375 49.84375 13.59375 Z M 49.84375 13.59375 "/>
<path style=" stroke:none;fill-rule:nonzero;fill:rgb(0%,36.862745%,80.784314%);fill-opacity:1;" d="M 53.46875 48.03125 L 53.46875 51.65625 C 53.46875 53.660156 51.847656 55.28125 49.84375 55.28125 L 51.65625 55.28125 C 53.660156 55.28125 55.28125 53.660156 55.28125 51.65625 L 55.28125 48.03125 Z M 53.46875 48.03125 "/>
<path style=" stroke:none;fill-rule:nonzero;fill:rgb(100%,80.392157%,0%);fill-opacity:1;" d="M 26.28125 51.65625 L 31.71875 51.65625 C 32.71875 51.65625 33.53125 50.84375 33.53125 49.84375 L 33.53125 48.03125 L 24.46875 48.03125 L 24.46875 49.84375 C 24.46875 50.84375 25.28125 51.65625 26.28125 51.65625 Z M 26.28125 51.65625 "/>
<path style=" stroke:none;fill-rule:nonzero;fill:rgb(100%,59.607843%,6.666667%);fill-opacity:1;" d="M 36.25 29.78125 C 29.3125 33.78125 20.449219 31.402344 16.445312 24.46875 C 12.441406 17.53125 14.820312 8.664062 21.753906 4.660156 C 28.6875 0.660156 37.554688 3.035156 41.5625 9.96875 C 45.558594 16.90625 43.179688 25.769531 36.25 29.78125 Z M 36.25 29.78125 "/>
<path style=" stroke:none;fill-rule:nonzero;fill:rgb(100%,80.392157%,0%);fill-opacity:1;" d="M 34.4375 26.632812 C 29.238281 29.640625 22.585938 27.859375 19.582031 22.65625 C 16.578125 17.457031 18.359375 10.804688 23.558594 7.800781 C 28.761719 4.796875 35.414062 6.578125 38.414062 11.78125 C 41.414062 16.980469 39.632812 23.628906 34.4375 26.632812 Z M 34.4375 26.632812 "/>
<path style=" stroke:none;fill-rule:nonzero;fill:rgb(0%,30.980392%,67.45098%);fill-opacity:1;" d="M 40.992188 34.363281 L 36.28125 37.082031 L 42.546875 47.933594 C 43.550781 49.667969 45.765625 50.261719 47.5 49.261719 C 49.234375 48.261719 49.828125 46.042969 48.828125 44.308594 L 42.5625 33.457031 Z M 40.992188 34.363281 "/>
<path style=" stroke:none;fill-rule:nonzero;fill:rgb(36.862745%,67.45098%,14.117647%);fill-opacity:1;" d="M 32.625 12.6875 L 35.34375 12.6875 L 35.34375 21.75 L 32.625 21.75 Z M 32.625 12.6875 "/>
<path style=" stroke:none;fill-rule:nonzero;fill:rgb(0%,42.745098%,94.117647%);fill-opacity:1;" d="M 27.1875 15.40625 L 29.90625 15.40625 L 29.90625 21.75 L 27.1875 21.75 Z M 27.1875 15.40625 "/>
<path style=" stroke:none;fill-rule:nonzero;fill:rgb(92.941176%,10.980392%,14.117647%);fill-opacity:1;" d="M 21.75 18.125 L 24.46875 18.125 L 24.46875 21.75 L 21.75 21.75 Z M 21.75 18.125 "/>
<path style=" stroke:none;fill-rule:nonzero;fill:rgb(100%,31.372549%,13.72549%);fill-opacity:1;" d="M 37.671875 28.828125 C 36.765625 29.519531 35.773438 30.09375 34.71875 30.535156 L 34.628906 30.585938 L 37.855469 36.175781 L 40.996094 34.363281 L 37.769531 28.773438 Z M 37.671875 28.828125 "/>
<path style=" stroke:none;fill-rule:nonzero;fill:rgb(0%,0%,0%);fill-opacity:1;" d="M 18.796875 23.109375 C 22.050781 28.746094 29.253906 30.675781 34.890625 27.421875 C 40.523438 24.167969 42.457031 16.964844 39.203125 11.328125 C 35.949219 5.695312 28.746094 3.761719 23.109375 7.015625 C 17.476562 10.273438 15.546875 17.472656 18.796875 23.109375 Z M 24.015625 8.585938 C 28.785156 5.832031 34.878906 7.464844 37.632812 12.234375 C 40.386719 17.003906 38.753906 23.097656 33.984375 25.851562 C 29.214844 28.605469 23.121094 26.972656 20.367188 22.203125 C 19.027344 19.917969 18.660156 17.191406 19.34375 14.632812 C 20.03125 12.074219 21.714844 9.894531 24.015625 8.585938 Z M 24.015625 8.585938 "/>
<path style=" stroke:none;fill-rule:nonzero;fill:rgb(0%,0%,0%);fill-opacity:1;" d="M 55.28125 47.125 L 53.445312 47.125 C 54.046875 46.34375 54.371094 45.390625 54.375 44.40625 L 54.375 17.21875 C 54.371094 14.71875 52.34375 12.691406 49.84375 12.6875 L 43.714844 12.6875 C 41.738281 6.21875 35.769531 1.804688 29.007812 1.804688 C 22.246094 1.804688 16.277344 6.21875 14.300781 12.6875 L 8.15625 12.6875 C 5.65625 12.691406 3.628906 14.71875 3.625 17.21875 L 3.625 44.40625 C 3.628906 45.390625 3.953125 46.34375 4.554688 47.125 L 2.71875 47.125 C 2.21875 47.125 1.8125 47.53125 1.8125 48.03125 L 1.8125 51.65625 C 1.816406 54.15625 3.84375 56.183594 6.34375 56.1875 L 51.65625 56.1875 C 54.15625 56.183594 56.183594 54.15625 56.1875 51.65625 L 56.1875 48.03125 C 56.1875 47.53125 55.78125 47.125 55.28125 47.125 Z M 49.84375 14.5 C 51.34375 14.5 52.5625 15.71875 52.5625 17.21875 L 52.5625 44.40625 C 52.558594 45.804688 51.488281 46.972656 50.09375 47.101562 C 50.230469 46.492188 50.234375 45.867188 50.117188 45.257812 C 50.492188 45.144531 50.746094 44.796875 50.75 44.40625 L 50.75 17.21875 C 50.75 16.71875 50.34375 16.3125 49.84375 16.3125 L 44.363281 16.3125 C 44.328125 15.703125 44.253906 15.097656 44.148438 14.5 Z M 13.636719 18.125 C 14.007812 24.753906 18.597656 30.394531 25.011719 32.101562 C 26.320312 32.453125 27.667969 32.628906 29.023438 32.632812 C 30.800781 32.628906 32.558594 32.316406 34.226562 31.707031 L 36.613281 35.84375 L 35.828125 36.296875 C 35.394531 36.546875 35.246094 37.101562 35.496094 37.535156 L 38.941406 43.5 L 9.0625 43.5 L 9.0625 18.125 Z M 37.464844 30.070312 L 39.753906 34.03125 L 38.183594 34.9375 L 35.902344 30.988281 C 36.175781 30.851562 36.441406 30.714844 36.703125 30.5625 C 36.964844 30.40625 37.210938 30.234375 37.464844 30.070312 Z M 37.519531 37.414062 L 42.230469 34.695312 L 48.039062 44.753906 L 48.039062 44.757812 C 48.789062 46.0625 48.34375 47.722656 47.042969 48.476562 C 45.742188 49.226562 44.078125 48.78125 43.324219 47.476562 Z M 43.347656 33.003906 C 43.09375 32.570312 42.542969 32.421875 42.109375 32.671875 L 41.324219 33.125 L 38.929688 28.980469 C 42.148438 26.257812 44.113281 22.335938 44.367188 18.125 L 48.9375 18.125 L 48.9375 42.691406 Z M 22.203125 5.445312 C 24.261719 4.25 26.597656 3.621094 28.976562 3.617188 C 30.171875 3.621094 31.363281 3.777344 32.519531 4.089844 C 37.828125 5.511719 41.757812 9.992188 42.476562 15.445312 C 43.195312 20.894531 40.558594 26.242188 35.796875 28.992188 C 31.589844 31.457031 26.382812 31.480469 22.152344 29.050781 C 17.921875 26.621094 15.316406 22.113281 15.328125 17.234375 C 15.339844 12.355469 17.960938 7.859375 22.203125 5.445312 Z M 5.4375 17.21875 C 5.4375 15.71875 6.65625 14.5 8.15625 14.5 L 13.851562 14.5 C 13.742188 15.097656 13.667969 15.703125 13.632812 16.3125 L 8.15625 16.3125 C 7.65625 16.3125 7.25 16.71875 7.25 17.21875 L 7.25 44.40625 C 7.25 44.90625 7.65625 45.3125 8.15625 45.3125 L 39.988281 45.3125 L 41.035156 47.125 L 8.15625 47.125 C 6.65625 47.125 5.4375 45.90625 5.4375 44.40625 Z M 32.625 48.9375 L 32.625 49.84375 C 32.625 50.34375 32.21875 50.75 31.71875 50.75 L 26.28125 50.75 C 25.78125 50.75 25.375 50.34375 25.375 49.84375 L 25.375 48.9375 Z M 54.375 51.65625 C 54.375 53.15625 53.15625 54.375 51.65625 54.375 L 6.34375 54.375 C 4.84375 54.375 3.625 53.15625 3.625 51.65625 L 3.625 48.9375 L 23.5625 48.9375 L 23.5625 49.84375 C 23.5625 51.34375 24.78125 52.5625 26.28125 52.5625 L 31.71875 52.5625 C 33.21875 52.5625 34.4375 51.34375 34.4375 49.84375 L 34.4375 48.9375 L 42.140625 48.9375 C 42.996094 50.027344 44.300781 50.660156 45.683594 50.660156 C 47.066406 50.660156 48.375 50.027344 49.226562 48.9375 L 54.375 48.9375 Z M 54.375 51.65625 "/>
<path style=" stroke:none;fill-rule:nonzero;fill:rgb(0%,0%,0%);fill-opacity:1;" d="M 32.625 22.65625 L 35.34375 22.65625 C 35.84375 22.65625 36.25 22.25 36.25 21.75 L 36.25 12.6875 C 36.25 12.1875 35.84375 11.78125 35.34375 11.78125 L 32.625 11.78125 C 32.125 11.78125 31.71875 12.1875 31.71875 12.6875 L 31.71875 21.75 C 31.71875 22.25 32.125 22.65625 32.625 22.65625 Z M 33.53125 13.59375 L 34.4375 13.59375 L 34.4375 20.84375 L 33.53125 20.84375 Z M 33.53125 13.59375 "/>
<path style=" stroke:none;fill-rule:nonzero;fill:rgb(0%,0%,0%);fill-opacity:1;" d="M 27.1875 22.65625 L 29.90625 22.65625 C 30.40625 22.65625 30.8125 22.25 30.8125 21.75 L 30.8125 15.40625 C 30.8125 14.90625 30.40625 14.5 29.90625 14.5 L 27.1875 14.5 C 26.6875 14.5 26.28125 14.90625 26.28125 15.40625 L 26.28125 21.75 C 26.28125 22.25 26.6875 22.65625 27.1875 22.65625 Z M 28.09375 16.3125 L 29 16.3125 L 29 20.84375 L 28.09375 20.84375 Z M 28.09375 16.3125 "/>
<path style=" stroke:none;fill-rule:nonzero;fill:rgb(0%,0%,0%);fill-opacity:1;" d="M 21.75 22.65625 L 24.46875 22.65625 C 24.96875 22.65625 25.375 22.25 25.375 21.75 L 25.375 18.125 C 25.375 17.625 24.96875 17.21875 24.46875 17.21875 L 21.75 17.21875 C 21.25 17.21875 20.84375 17.625 20.84375 18.125 L 20.84375 21.75 C 20.84375 22.25 21.25 22.65625 21.75 22.65625 Z M 22.65625 19.03125 L 23.5625 19.03125 L 23.5625 20.84375 L 22.65625 20.84375 Z M 22.65625 19.03125 "/>
<path style=" stroke:none;fill-rule:nonzero;fill:rgb(0%,0%,0%);fill-opacity:1;" d="M 13.59375 38.0625 L 15.40625 38.0625 C 15.90625 38.0625 16.3125 37.65625 16.3125 37.15625 C 16.3125 36.65625 15.90625 36.25 15.40625 36.25 L 13.59375 36.25 C 13.09375 36.25 12.6875 36.65625 12.6875 37.15625 C 12.6875 37.65625 13.09375 38.0625 13.59375 38.0625 Z M 13.59375 38.0625 "/>
<path style=" stroke:none;fill-rule:nonzero;fill:rgb(0%,0%,0%);fill-opacity:1;" d="M 19.03125 38.0625 L 32.625 38.0625 C 33.125 38.0625 33.53125 37.65625 33.53125 37.15625 C 33.53125 36.65625 33.125 36.25 32.625 36.25 L 19.03125 36.25 C 18.53125 36.25 18.125 36.65625 18.125 37.15625 C 18.125 37.65625 18.53125 38.0625 19.03125 38.0625 Z M 19.03125 38.0625 "/>
<path style=" stroke:none;fill-rule:nonzero;fill:rgb(0%,0%,0%);fill-opacity:1;" d="M 13.59375 34.4375 L 15.40625 34.4375 C 15.90625 34.4375 16.3125 34.03125 16.3125 33.53125 C 16.3125 33.03125 15.90625 32.625 15.40625 32.625 L 13.59375 32.625 C 13.09375 32.625 12.6875 33.03125 12.6875 33.53125 C 12.6875 34.03125 13.09375 34.4375 13.59375 34.4375 Z M 13.59375 34.4375 "/>
<path style=" stroke:none;fill-rule:nonzero;fill:rgb(0%,0%,0%);fill-opacity:1;" d="M 19.03125 34.4375 L 22.65625 34.4375 C 23.15625 34.4375 23.5625 34.03125 23.5625 33.53125 C 23.5625 33.03125 23.15625 32.625 22.65625 32.625 L 19.03125 32.625 C 18.53125 32.625 18.125 33.03125 18.125 33.53125 C 18.125 34.03125 18.53125 34.4375 19.03125 34.4375 Z M 19.03125 34.4375 "/>
<path style=" stroke:none;fill-rule:nonzero;fill:rgb(0%,0%,0%);fill-opacity:1;" d="M 13.59375 41.6875 L 15.40625 41.6875 C 15.90625 41.6875 16.3125 41.28125 16.3125 40.78125 C 16.3125 40.28125 15.90625 39.875 15.40625 39.875 L 13.59375 39.875 C 13.09375 39.875 12.6875 40.28125 12.6875 40.78125 C 12.6875 41.28125 13.09375 41.6875 13.59375 41.6875 Z M 13.59375 41.6875 "/>
<path style=" stroke:none;fill-rule:nonzero;fill:rgb(0%,0%,0%);fill-opacity:1;" d="M 19.03125 41.6875 L 32.625 41.6875 C 33.125 41.6875 33.53125 41.28125 33.53125 40.78125 C 33.53125 40.28125 33.125 39.875 32.625 39.875 L 19.03125 39.875 C 18.53125 39.875 18.125 40.28125 18.125 40.78125 C 18.125 41.28125 18.53125 41.6875 19.03125 41.6875 Z M 19.03125 41.6875 "/>
</g>
</svg>
