<?xml version="1.0" encoding="UTF-8"?>
<svg xmlns="http://www.w3.org/2000/svg" xmlns:xlink="http://www.w3.org/1999/xlink" width="58pt" height="58pt" viewBox="0 0 58 58" version="1.1">
<g id="surface1">
<path style=" stroke:none;fill-rule:nonzero;fill:rgb(65.490196%,53.72549%,40%);fill-opacity:1;" d="M 4.53125 2.71875 L 38.96875 2.71875 C 39.96875 2.71875 40.78125 3.53125 40.78125 4.53125 L 40.78125 38.96875 C 40.78125 39.96875 39.96875 40.78125 38.96875 40.78125 L 4.53125 40.78125 C 3.53125 40.78125 2.71875 39.96875 2.71875 38.96875 L 2.71875 4.53125 C 2.71875 3.53125 3.53125 2.71875 4.53125 2.71875 Z M 4.53125 2.71875 "/>
<path style=" stroke:none;fill-rule:nonzero;fill:rgb(50.196078%,40.392157%,28.627451%);fill-opacity:1;" d="M 40.78125 4.53125 L 40.78125 38.96875 C 40.777344 39.96875 39.96875 40.777344 38.96875 40.78125 L 34.4375 40.78125 C 35.4375 40.777344 36.246094 39.96875 36.25 38.96875 L 36.25 4.53125 C 36.246094 3.53125 35.4375 2.722656 34.4375 2.71875 L 38.96875 2.71875 C 39.96875 2.722656 40.777344 3.53125 40.78125 4.53125 Z M 40.78125 4.53125 "/>
<path style=" stroke:none;fill-rule:nonzero;fill:rgb(77.647059%,77.254902%,79.215686%);fill-opacity:1;" d="M 6.34375 6.34375 L 37.15625 6.34375 L 37.15625 37.15625 L 6.34375 37.15625 Z M 6.34375 6.34375 "/>
<path style=" stroke:none;fill-rule:nonzero;fill:rgb(53.72549%,53.333333%,56.470588%);fill-opacity:1;" d="M 33.53125 6.34375 L 37.15625 6.34375 L 37.15625 37.15625 L 33.53125 37.15625 Z M 33.53125 6.34375 "/>
<path style=" stroke:none;fill-rule:nonzero;fill:rgb(99.215686%,46.666667%,46.666667%);fill-opacity:1;" d="M 29.90625 21.75 C 29.90625 26.253906 26.253906 29.90625 21.75 29.90625 C 17.246094 29.90625 13.59375 26.253906 13.59375 21.75 C 13.59375 17.246094 17.246094 13.59375 21.75 13.59375 C 26.253906 13.59375 29.90625 17.246094 29.90625 21.75 Z M 29.90625 21.75 "/>
<path style=" stroke:none;fill-rule:nonzero;fill:rgb(100%,18.823529%,31.764706%);fill-opacity:1;" d="M 29.90625 21.75 C 29.90625 26.253906 26.253906 29.90625 21.75 29.90625 C 21.140625 29.90625 20.53125 29.839844 19.9375 29.707031 C 23.648438 28.859375 26.28125 25.558594 26.28125 21.75 C 26.28125 17.941406 23.648438 14.640625 19.9375 13.792969 C 20.53125 13.660156 21.140625 13.59375 21.75 13.59375 C 26.253906 13.59375 29.90625 17.246094 29.90625 21.75 Z M 29.90625 21.75 "/>
<path style=" stroke:none;fill-rule:nonzero;fill:rgb(100%,89.411765%,46.666667%);fill-opacity:1;" d="M 55.28125 40.78125 C 55.28125 48.789062 48.789062 55.28125 40.78125 55.28125 C 32.773438 55.28125 26.28125 48.789062 26.28125 40.78125 C 26.28125 32.773438 32.773438 26.28125 40.78125 26.28125 C 48.789062 26.28125 55.28125 32.773438 55.28125 40.78125 Z M 55.28125 40.78125 "/>
<path style=" stroke:none;fill-rule:nonzero;fill:rgb(100%,83.137255%,13.333333%);fill-opacity:1;" d="M 55.28125 40.78125 C 55.28125 48.789062 48.789062 55.28125 40.78125 55.28125 C 40.175781 55.28125 39.570312 55.246094 38.96875 55.171875 C 46.21875 54.261719 51.660156 48.09375 51.660156 40.785156 C 51.660156 33.476562 46.21875 27.3125 38.96875 26.398438 C 39.570312 26.320312 40.175781 26.277344 40.78125 26.28125 C 48.789062 26.28125 55.28125 32.773438 55.28125 40.78125 Z M 55.28125 40.78125 "/>
<path style=" stroke:none;fill-rule:nonzero;fill:rgb(100%,80.392157%,0%);fill-opacity:1;" d="M 46.21875 37.15625 L 42.59375 37.15625 C 42.59375 36.15625 41.78125 35.34375 40.78125 35.34375 C 39.78125 35.34375 38.96875 36.15625 38.96875 37.15625 C 38.96875 38.15625 39.78125 38.96875 40.78125 38.96875 C 43.421875 38.976562 45.675781 40.882812 46.121094 43.484375 C 46.570312 46.089844 45.082031 48.636719 42.59375 49.527344 L 42.59375 51.65625 L 38.96875 51.65625 L 38.96875 49.527344 C 36.796875 48.761719 35.34375 46.710938 35.34375 44.40625 L 38.96875 44.40625 C 38.96875 45.40625 39.78125 46.21875 40.78125 46.21875 C 41.78125 46.21875 42.59375 45.40625 42.59375 44.40625 C 42.59375 43.40625 41.78125 42.59375 40.78125 42.59375 C 38.128906 42.597656 35.863281 40.6875 35.414062 38.074219 C 34.964844 35.460938 36.46875 32.90625 38.96875 32.027344 L 38.96875 29.90625 L 42.59375 29.90625 L 42.59375 32.035156 C 44.765625 32.800781 46.21875 34.851562 46.21875 37.15625 Z M 46.21875 37.15625 "/>
<path style=" stroke:none;fill-rule:nonzero;fill:rgb(86.666667%,69.803922%,0%);fill-opacity:1;" d="M 39.875 45.972656 C 39.316406 46.296875 38.625 46.296875 38.0625 45.972656 C 37.503906 45.652344 37.15625 45.054688 37.15625 44.40625 L 38.96875 44.40625 C 38.96875 45.054688 39.316406 45.652344 39.875 45.972656 Z M 39.875 45.972656 "/>
<path style=" stroke:none;fill-rule:nonzero;fill:rgb(86.666667%,69.803922%,0%);fill-opacity:1;" d="M 46.21875 44.40625 C 46.21875 46.710938 44.765625 48.761719 42.59375 49.527344 L 42.59375 51.65625 L 40.78125 51.65625 L 40.78125 49.527344 C 43.269531 48.636719 44.757812 46.089844 44.308594 43.484375 C 43.863281 40.882812 41.609375 38.976562 38.96875 38.96875 C 38.207031 38.96875 37.523438 38.492188 37.261719 37.777344 C 37 37.058594 37.21875 36.257812 37.800781 35.765625 C 38.386719 35.277344 39.214844 35.207031 39.875 35.589844 C 39.167969 36 38.820312 36.835938 39.035156 37.625 C 39.246094 38.417969 39.960938 38.96875 40.78125 38.96875 C 43.785156 38.96875 46.21875 41.402344 46.21875 44.40625 Z M 46.21875 44.40625 "/>
<path style=" stroke:none;fill-rule:nonzero;fill:rgb(86.666667%,69.803922%,0%);fill-opacity:1;" d="M 40.78125 32.035156 L 40.78125 29.90625 L 42.59375 29.90625 L 42.59375 32.035156 C 44.765625 32.800781 46.21875 34.851562 46.21875 37.15625 L 44.40625 37.15625 C 44.40625 34.851562 42.953125 32.800781 40.78125 32.035156 Z M 40.78125 32.035156 "/>
<path style=" stroke:none;fill-rule:nonzero;fill:rgb(99.607843%,91.372549%,67.058824%);fill-opacity:1;" d="M 24.46875 21.75 C 24.46875 23.25 23.25 24.46875 21.75 24.46875 C 20.25 24.46875 19.03125 23.25 19.03125 21.75 C 19.03125 20.25 20.25 19.03125 21.75 19.03125 C 23.25 19.03125 24.46875 20.25 24.46875 21.75 Z M 24.46875 21.75 "/>
<path style=" stroke:none;fill-rule:nonzero;fill:rgb(100%,83.137255%,13.333333%);fill-opacity:1;" d="M 24.46875 21.75 C 24.46875 23.25 23.25 24.46875 21.75 24.46875 C 21.441406 24.46875 21.132812 24.414062 20.84375 24.304688 C 21.929688 23.925781 22.65625 22.902344 22.65625 21.75 C 22.65625 20.597656 21.929688 19.574219 20.84375 19.195312 C 21.132812 19.085938 21.441406 19.03125 21.75 19.03125 C 23.25 19.03125 24.46875 20.25 24.46875 21.75 Z M 24.46875 21.75 "/>
<path style=" stroke:none;fill-rule:nonzero;fill:rgb(0%,0%,0%);fill-opacity:1;" d="M 41.6875 25.421875 L 41.6875 4.53125 C 41.6875 3.03125 40.46875 1.8125 38.96875 1.8125 L 4.53125 1.8125 C 3.03125 1.8125 1.8125 3.03125 1.8125 4.53125 L 1.8125 38.96875 C 1.8125 40.46875 3.03125 41.6875 4.53125 41.6875 L 25.421875 41.6875 C 25.902344 49.945312 32.820312 56.34375 41.089844 56.183594 C 49.359375 56.023438 56.023438 49.359375 56.183594 41.089844 C 56.34375 32.820312 49.945312 25.902344 41.6875 25.421875 Z M 3.625 38.96875 L 3.625 4.53125 C 3.625 4.03125 4.03125 3.625 4.53125 3.625 L 38.96875 3.625 C 39.46875 3.625 39.875 4.03125 39.875 4.53125 L 39.875 25.421875 C 39.265625 25.453125 38.660156 25.523438 38.0625 25.628906 L 38.0625 6.34375 C 38.0625 5.84375 37.65625 5.4375 37.15625 5.4375 L 6.34375 5.4375 C 5.84375 5.4375 5.4375 5.84375 5.4375 6.34375 L 5.4375 37.15625 C 5.4375 37.65625 5.84375 38.0625 6.34375 38.0625 L 25.628906 38.0625 C 25.523438 38.660156 25.453125 39.265625 25.421875 39.875 L 4.53125 39.875 C 4.03125 39.875 3.625 39.46875 3.625 38.96875 Z M 36.25 26.058594 C 31.378906 27.566406 27.566406 31.378906 26.058594 36.25 L 7.25 36.25 L 7.25 7.25 L 36.25 7.25 Z M 40.78125 54.375 C 33.273438 54.375 27.1875 48.289062 27.1875 40.78125 C 27.1875 33.273438 33.273438 27.1875 40.78125 27.1875 C 48.289062 27.1875 54.375 33.273438 54.375 40.78125 C 54.367188 48.285156 48.285156 54.367188 40.78125 54.375 Z M 40.78125 54.375 "/>
<path style=" stroke:none;fill-rule:nonzero;fill:rgb(0%,0%,0%);fill-opacity:1;" d="M 40.78125 36.25 C 41.28125 36.25 41.6875 36.65625 41.6875 37.15625 C 41.6875 37.65625 42.09375 38.0625 42.59375 38.0625 L 46.21875 38.0625 C 46.71875 38.0625 47.125 37.65625 47.125 37.15625 C 47.121094 34.707031 45.710938 32.480469 43.5 31.429688 L 43.5 29.90625 C 43.5 29.40625 43.09375 29 42.59375 29 L 38.96875 29 C 38.46875 29 38.0625 29.40625 38.0625 29.90625 L 38.0625 31.417969 C 36.28125 32.253906 34.992188 33.875 34.578125 35.800781 C 34.171875 37.679688 34.632812 39.636719 35.839844 41.132812 C 37.042969 42.628906 38.859375 43.5 40.78125 43.5 C 41.28125 43.5 41.6875 43.90625 41.6875 44.40625 C 41.6875 44.90625 41.28125 45.3125 40.78125 45.3125 C 40.28125 45.3125 39.875 44.90625 39.875 44.40625 C 39.875 43.90625 39.46875 43.5 38.96875 43.5 L 35.34375 43.5 C 34.84375 43.5 34.4375 43.90625 34.4375 44.40625 C 34.441406 46.855469 35.851562 49.082031 38.0625 50.132812 L 38.0625 51.65625 C 38.0625 52.15625 38.46875 52.5625 38.96875 52.5625 L 42.59375 52.5625 C 43.09375 52.5625 43.5 52.15625 43.5 51.65625 L 43.5 50.132812 C 46.175781 48.859375 47.609375 45.902344 46.960938 43.011719 C 46.308594 40.121094 43.742188 38.066406 40.78125 38.0625 C 40.28125 38.0625 39.875 37.65625 39.875 37.15625 C 39.875 36.65625 40.28125 36.25 40.78125 36.25 Z M 40.78125 39.875 C 42.980469 39.882812 44.859375 41.472656 45.230469 43.640625 C 45.605469 45.808594 44.363281 47.933594 42.292969 48.671875 C 41.929688 48.800781 41.6875 49.144531 41.6875 49.527344 L 41.6875 50.75 L 39.875 50.75 L 39.875 49.527344 C 39.875 49.144531 39.632812 48.800781 39.269531 48.671875 C 37.773438 48.144531 36.660156 46.867188 36.339844 45.3125 L 38.214844 45.3125 C 38.675781 46.617188 40.042969 47.367188 41.390625 47.054688 C 42.734375 46.746094 43.636719 45.472656 43.480469 44.101562 C 43.324219 42.726562 42.164062 41.6875 40.78125 41.6875 C 39.414062 41.691406 38.121094 41.074219 37.261719 40.011719 C 36.394531 38.933594 36.0625 37.523438 36.355469 36.171875 C 36.6875 34.640625 37.792969 33.394531 39.269531 32.882812 C 39.632812 32.753906 39.875 32.410156 39.875 32.027344 L 39.875 30.8125 L 41.6875 30.8125 L 41.6875 32.035156 C 41.6875 32.417969 41.929688 32.761719 42.292969 32.890625 C 43.789062 33.417969 44.902344 34.695312 45.222656 36.25 L 43.34375 36.25 C 42.882812 34.945312 41.519531 34.195312 40.171875 34.507812 C 38.824219 34.816406 37.925781 36.089844 38.082031 37.464844 C 38.238281 38.835938 39.398438 39.875 40.78125 39.875 Z M 40.78125 39.875 "/>
<path style=" stroke:none;fill-rule:nonzero;fill:rgb(0%,0%,0%);fill-opacity:1;" d="M 21.75 30.8125 C 26.753906 30.8125 30.8125 26.753906 30.8125 21.75 C 30.8125 16.746094 26.753906 12.6875 21.75 12.6875 C 16.746094 12.6875 12.6875 16.746094 12.6875 21.75 C 12.691406 26.753906 16.746094 30.808594 21.75 30.8125 Z M 17.375 15.984375 L 18.246094 17.496094 L 19.816406 16.589844 L 18.941406 15.066406 C 19.550781 14.8125 20.1875 14.644531 20.84375 14.5625 L 20.84375 16.3125 L 22.65625 16.3125 L 22.65625 14.5625 C 23.3125 14.644531 23.949219 14.8125 24.558594 15.066406 L 23.683594 16.585938 L 25.253906 17.492188 L 26.125 15.980469 C 26.648438 16.378906 27.117188 16.847656 27.515625 17.371094 L 26.003906 18.242188 L 26.910156 19.8125 L 28.433594 18.933594 C 28.6875 19.542969 28.855469 20.183594 28.9375 20.839844 L 27.1875 20.839844 L 27.1875 22.652344 L 28.9375 22.652344 C 28.855469 23.304688 28.6875 23.945312 28.433594 24.554688 L 26.914062 23.683594 L 26.007812 25.253906 L 27.519531 26.125 C 27.121094 26.648438 26.652344 27.117188 26.128906 27.515625 L 25.253906 26.007812 L 23.683594 26.914062 L 24.5625 28.4375 C 23.953125 28.691406 23.3125 28.859375 22.65625 28.941406 L 22.65625 27.1875 L 20.84375 27.1875 L 20.84375 28.9375 C 20.1875 28.855469 19.550781 28.6875 18.941406 28.433594 L 19.816406 26.910156 L 18.25 26.003906 L 17.375 27.515625 C 16.851562 27.117188 16.382812 26.648438 15.984375 26.125 L 17.496094 25.253906 L 16.589844 23.683594 L 15.070312 24.5625 C 14.816406 23.953125 14.644531 23.3125 14.5625 22.65625 L 16.3125 22.65625 L 16.3125 20.84375 L 14.5625 20.84375 C 14.644531 20.1875 14.8125 19.550781 15.066406 18.941406 L 16.589844 19.816406 L 17.496094 18.25 L 15.984375 17.375 C 16.382812 16.851562 16.851562 16.382812 17.375 15.984375 Z M 17.375 15.984375 "/>
<path style=" stroke:none;fill-rule:nonzero;fill:rgb(0%,0%,0%);fill-opacity:1;" d="M 21.75 25.375 C 23.753906 25.375 25.375 23.753906 25.375 21.75 C 25.375 19.746094 23.753906 18.125 21.75 18.125 C 19.746094 18.125 18.125 19.746094 18.125 21.75 C 18.125 23.753906 19.746094 25.375 21.75 25.375 Z M 21.75 19.9375 C 22.75 19.9375 23.5625 20.75 23.5625 21.75 C 23.5625 22.75 22.75 23.5625 21.75 23.5625 C 20.75 23.5625 19.9375 22.75 19.9375 21.75 C 19.9375 20.75 20.75 19.9375 21.75 19.9375 Z M 21.75 19.9375 "/>
<path style=" stroke:none;fill-rule:nonzero;fill:rgb(0%,0%,0%);fill-opacity:1;" d="M 32.625 9.0625 L 34.4375 9.0625 L 34.4375 10.875 L 32.625 10.875 Z M 32.625 9.0625 "/>
<path style=" stroke:none;fill-rule:nonzero;fill:rgb(0%,0%,0%);fill-opacity:1;" d="M 9.0625 9.0625 L 10.875 9.0625 L 10.875 10.875 L 9.0625 10.875 Z M 9.0625 9.0625 "/>
<path style=" stroke:none;fill-rule:nonzero;fill:rgb(0%,0%,0%);fill-opacity:1;" d="M 9.0625 32.625 L 10.875 32.625 L 10.875 34.4375 L 9.0625 34.4375 Z M 9.0625 32.625 "/>
</g>
</svg>
