<?xml version="1.0" encoding="UTF-8"?>
<svg xmlns="http://www.w3.org/2000/svg" xmlns:xlink="http://www.w3.org/1999/xlink" width="58pt" height="58pt" viewBox="0 0 58 58" version="1.1">
<g id="surface1">
<path style=" stroke:none;fill-rule:nonzero;fill:rgb(100%,55.686275%,55.686275%);fill-opacity:1;" d="M 49.613281 1.132812 L 27.867188 1.132812 C 23.859375 1.132812 20.617188 4.378906 20.617188 8.382812 L 20.617188 17.332031 C 20.617188 21.335938 23.859375 24.582031 27.867188 24.582031 L 38.125 24.582031 L 38.125 28.898438 L 42.4375 24.582031 L 49.613281 24.582031 C 53.621094 24.582031 56.863281 21.335938 56.863281 17.332031 L 56.863281 8.382812 C 56.863281 4.378906 53.621094 1.132812 49.613281 1.132812 Z M 49.613281 1.132812 "/>
<path style=" stroke:none;fill-rule:nonzero;fill:rgb(59.607843%,89.019608%,100%);fill-opacity:1;" d="M 5.527344 15.167969 L 4.179688 16.878906 C -0.285156 22.566406 0.203125 30.695312 5.316406 35.804688 L 17.652344 48.144531 C 22.765625 53.257812 30.890625 53.742188 36.578125 49.277344 L 38.292969 47.933594 C 39.839844 46.71875 39.976562 44.421875 38.585938 43.03125 L 32.316406 36.761719 C 31.035156 35.480469 28.957031 35.480469 27.675781 36.761719 L 25.636719 38.800781 C 24.671875 39.765625 23.109375 39.765625 22.144531 38.800781 L 14.652344 31.308594 C 13.691406 30.34375 13.691406 28.78125 14.652344 27.820312 L 16.691406 25.777344 C 17.972656 24.496094 17.972656 22.421875 16.691406 21.136719 L 10.425781 14.871094 C 9.035156 13.480469 6.742188 13.617188 5.527344 15.167969 Z M 5.527344 15.167969 "/>
<path style=" stroke:none;fill-rule:nonzero;fill:rgb(100%,100%,100%);fill-opacity:1;" d="M 32.316406 36.761719 C 31.035156 35.480469 28.957031 35.480469 27.675781 36.761719 L 25.667969 38.769531 L 36.351562 49.453125 C 36.429688 49.394531 36.503906 49.339844 36.578125 49.277344 L 38.292969 47.933594 C 39.839844 46.71875 39.976562 44.421875 38.585938 43.03125 Z M 32.316406 36.761719 "/>
<path style=" stroke:none;fill-rule:nonzero;fill:rgb(100%,100%,100%);fill-opacity:1;" d="M 14.6875 27.785156 L 16.691406 25.777344 C 17.976562 24.496094 17.976562 22.421875 16.691406 21.136719 L 10.425781 14.871094 C 9.035156 13.480469 6.742188 13.617188 5.527344 15.167969 L 4.179688 16.878906 C 4.121094 16.957031 4.0625 17.03125 4.007812 17.105469 Z M 14.6875 27.785156 "/>
<path style=" stroke:none;fill-rule:nonzero;fill:rgb(100%,100%,100%);fill-opacity:1;" d="M 25.886719 39.074219 L 36.175781 49.363281 L 38.292969 47.933594 C 39.839844 46.71875 39.976562 44.421875 38.585938 43.03125 L 32.316406 36.761719 C 31.035156 35.480469 28.957031 35.480469 27.675781 36.761719 Z M 25.886719 39.074219 "/>
<path style=" stroke:none;fill-rule:nonzero;fill:rgb(100%,100%,100%);fill-opacity:1;" d="M 14.648438 27.835938 L 4.378906 17.566406 L 5.527344 15.167969 C 6.742188 13.617188 9.035156 13.480469 10.425781 14.871094 L 16.695312 21.140625 C 17.976562 22.421875 17.976562 24.496094 16.695312 25.777344 Z M 14.648438 27.835938 "/>
<path style=" stroke:none;fill-rule:nonzero;fill:rgb(0%,0%,0%);fill-opacity:1;" d="M 33.117188 35.960938 C 31.394531 34.238281 28.59375 34.238281 26.875 35.960938 L 24.835938 38 C 24.582031 38.253906 24.246094 38.390625 23.890625 38.390625 C 23.535156 38.390625 23.199219 38.253906 22.949219 38 L 15.453125 30.507812 C 15.203125 30.253906 15.0625 29.917969 15.0625 29.5625 C 15.0625 29.234375 15.183594 28.921875 15.402344 28.679688 C 15.417969 28.664062 15.433594 28.652344 15.449219 28.636719 C 15.480469 28.605469 15.507812 28.574219 15.53125 28.542969 L 17.496094 26.578125 C 19.214844 24.859375 19.214844 22.058594 17.496094 20.335938 L 11.226562 14.070312 C 10.335938 13.179688 9.101562 12.710938 7.84375 12.785156 C 6.582031 12.863281 5.414062 13.476562 4.636719 14.46875 L 3.289062 16.179688 C -1.523438 22.3125 -0.996094 31.09375 4.515625 36.609375 L 16.851562 48.945312 C 19.84375 51.933594 23.792969 53.457031 27.761719 53.457031 C 30.457031 53.457031 33.164062 52.753906 35.582031 51.328125 C 36.3125 52.234375 36.273438 53.3125 35.960938 54.058594 C 35.625 54.867188 34.792969 55.734375 33.453125 55.734375 L 25.886719 55.734375 C 25.261719 55.734375 24.753906 56.242188 24.753906 56.867188 C 24.753906 57.492188 25.261719 58 25.886719 58 L 33.453125 58 C 35.507812 58 37.269531 56.820312 38.054688 54.925781 C 38.75 53.253906 38.507812 51.4375 37.449219 50.039062 L 38.992188 48.824219 C 39.984375 48.046875 40.597656 46.875 40.671875 45.617188 C 40.75 44.355469 40.28125 43.125 39.386719 42.230469 Z M 7.976562 15.046875 C 8.601562 15.011719 9.1875 15.234375 9.625 15.671875 L 15.890625 21.941406 C 16.296875 22.34375 16.523438 22.886719 16.523438 23.457031 C 16.523438 24.03125 16.296875 24.574219 15.890625 24.976562 L 14.644531 26.226562 L 5.476562 17.0625 L 6.417969 15.867188 C 6.800781 15.375 7.355469 15.085938 7.976562 15.046875 Z M 18.453125 47.34375 L 6.117188 35.003906 C 1.804688 30.695312 1.070312 24.039062 4.140625 18.929688 L 13.171875 27.960938 C 12.929688 28.453125 12.796875 29 12.796875 29.5625 C 12.796875 30.523438 13.171875 31.429688 13.851562 32.109375 L 21.34375 39.601562 C 22.023438 40.28125 22.929688 40.65625 23.890625 40.65625 C 24.457031 40.65625 25 40.527344 25.492188 40.28125 L 34.527344 49.316406 C 29.421875 52.390625 22.765625 51.652344 18.453125 47.34375 Z M 38.410156 45.480469 C 38.375 46.101562 38.082031 46.65625 37.59375 47.042969 L 36.398438 47.980469 L 27.226562 38.8125 L 28.476562 37.5625 C 29.3125 36.722656 30.675781 36.722656 31.515625 37.5625 L 37.785156 43.832031 C 38.226562 44.273438 38.449219 44.859375 38.410156 45.480469 Z M 38.410156 45.480469 "/>
<path style=" stroke:none;fill-rule:nonzero;fill:rgb(0%,0%,0%);fill-opacity:1;" d="M 9.800781 33.207031 C 9.359375 32.765625 8.640625 32.765625 8.199219 33.207031 C 7.757812 33.648438 7.757812 34.367188 8.199219 34.808594 L 15.035156 41.644531 C 15.257812 41.867188 15.546875 41.976562 15.835938 41.976562 C 16.125 41.976562 16.414062 41.867188 16.636719 41.644531 C 17.078125 41.203125 17.078125 40.484375 16.636719 40.042969 Z M 9.800781 33.207031 "/>
<path style=" stroke:none;fill-rule:nonzero;fill:rgb(0%,0%,0%);fill-opacity:1;" d="M 19.390625 43.265625 C 19.09375 43.265625 18.800781 43.386719 18.589844 43.597656 C 18.378906 43.808594 18.257812 44.101562 18.257812 44.398438 C 18.257812 44.695312 18.378906 44.988281 18.589844 45.199219 C 18.800781 45.410156 19.089844 45.53125 19.390625 45.53125 C 19.6875 45.53125 19.980469 45.410156 20.191406 45.199219 C 20.402344 44.988281 20.523438 44.695312 20.523438 44.398438 C 20.523438 44.101562 20.402344 43.808594 20.191406 43.597656 C 19.980469 43.386719 19.6875 43.265625 19.390625 43.265625 Z M 19.390625 43.265625 "/>
<path style=" stroke:none;fill-rule:nonzero;fill:rgb(0%,0%,0%);fill-opacity:1;" d="M 49.613281 0 L 27.867188 0 C 23.242188 0 19.484375 3.761719 19.484375 8.382812 L 19.484375 17.332031 C 19.484375 21.953125 23.242188 25.714844 27.867188 25.714844 L 36.992188 25.714844 L 36.992188 28.898438 C 36.992188 29.355469 37.265625 29.769531 37.691406 29.945312 C 37.832031 30.003906 37.976562 30.03125 38.125 30.03125 C 38.417969 30.03125 38.707031 29.914062 38.925781 29.699219 L 42.910156 25.714844 L 49.613281 25.714844 C 54.238281 25.714844 57.996094 21.953125 57.996094 17.332031 L 57.996094 8.382812 C 57.996094 3.761719 54.238281 0 49.613281 0 Z M 55.730469 17.332031 C 55.730469 20.703125 52.988281 23.449219 49.613281 23.449219 L 42.4375 23.449219 C 42.140625 23.449219 41.851562 23.570312 41.636719 23.78125 L 39.257812 26.164062 L 39.257812 24.582031 C 39.257812 23.957031 38.75 23.449219 38.125 23.449219 L 27.867188 23.449219 C 24.492188 23.449219 21.75 20.703125 21.75 17.332031 L 21.75 8.382812 C 21.75 5.007812 24.492188 2.265625 27.867188 2.265625 L 49.613281 2.265625 C 52.988281 2.265625 55.730469 5.007812 55.730469 8.382812 Z M 55.730469 17.332031 "/>
<path style=" stroke:none;fill-rule:nonzero;fill:rgb(0%,0%,0%);fill-opacity:1;" d="M 31.664062 15.800781 L 29.277344 15.800781 C 30.640625 14.488281 32.023438 12.761719 32.023438 11.15625 C 32.023438 9.054688 30.613281 7.644531 28.515625 7.644531 C 26.578125 7.644531 25.003906 9.21875 25.003906 11.15625 C 25.003906 11.78125 25.511719 12.289062 26.136719 12.289062 C 26.765625 12.289062 27.269531 11.78125 27.269531 11.15625 C 27.269531 10.46875 27.828125 9.910156 28.515625 9.910156 C 29.628906 9.910156 29.757812 10.621094 29.757812 11.15625 C 29.757812 12.394531 27.207031 14.785156 25.484375 16.011719 C 25.082031 16.296875 24.910156 16.808594 25.058594 17.28125 C 25.207031 17.75 25.644531 18.066406 26.136719 18.066406 L 31.664062 18.066406 C 32.289062 18.066406 32.796875 17.5625 32.796875 16.933594 C 32.796875 16.308594 32.289062 15.800781 31.664062 15.800781 Z M 31.664062 15.800781 "/>
<path style=" stroke:none;fill-rule:nonzero;fill:rgb(0%,0%,0%);fill-opacity:1;" d="M 37.320312 10.890625 C 36.695312 10.890625 36.1875 11.398438 36.1875 12.023438 L 36.1875 12.816406 L 35.082031 12.816406 L 37.058594 9.339844 C 37.367188 8.796875 37.179688 8.105469 36.632812 7.792969 C 36.089844 7.484375 35.398438 7.675781 35.089844 8.21875 L 32.148438 13.386719 C 31.949219 13.738281 31.953125 14.167969 32.15625 14.515625 C 32.359375 14.867188 32.730469 15.082031 33.132812 15.082031 L 36.1875 15.082031 L 36.1875 16.933594 C 36.1875 17.5625 36.695312 18.066406 37.320312 18.066406 C 37.949219 18.066406 38.453125 17.5625 38.453125 16.933594 L 38.453125 12.023438 C 38.453125 11.398438 37.949219 10.890625 37.320312 10.890625 Z M 37.320312 10.890625 "/>
<path style=" stroke:none;fill-rule:nonzero;fill:rgb(0%,0%,0%);fill-opacity:1;" d="M 44.644531 7.722656 C 44.058594 7.496094 43.40625 7.789062 43.179688 8.371094 L 40.042969 16.527344 C 39.816406 17.113281 40.109375 17.769531 40.691406 17.992188 C 40.828125 18.042969 40.964844 18.070312 41.097656 18.070312 C 41.554688 18.070312 41.984375 17.792969 42.15625 17.34375 L 45.292969 9.1875 C 45.519531 8.601562 45.226562 7.945312 44.644531 7.722656 Z M 44.644531 7.722656 "/>
<path style=" stroke:none;fill-rule:nonzero;fill:rgb(0%,0%,0%);fill-opacity:1;" d="M 51.34375 7.648438 L 47.359375 7.648438 C 46.734375 7.648438 46.226562 8.152344 46.226562 8.78125 C 46.226562 9.40625 46.734375 9.914062 47.359375 9.914062 L 49.710938 9.914062 L 47.246094 16.539062 C 47.027344 17.125 47.324219 17.777344 47.914062 17.996094 C 48.042969 18.046875 48.175781 18.070312 48.308594 18.070312 C 48.765625 18.070312 49.199219 17.785156 49.367188 17.332031 L 52.402344 9.175781 C 52.535156 8.828125 52.484375 8.4375 52.273438 8.132812 C 52.0625 7.828125 51.714844 7.648438 51.34375 7.648438 Z M 51.34375 7.648438 "/>
<path style=" stroke:none;fill-rule:nonzero;fill:rgb(0%,0%,0%);fill-opacity:1;" d="M 19.777344 53.257812 C 19.335938 52.8125 18.617188 52.8125 18.175781 53.257812 C 17.734375 53.699219 17.734375 54.417969 18.175781 54.859375 L 20.984375 57.667969 C 21.207031 57.890625 21.496094 58 21.785156 58 C 22.074219 58 22.367188 57.890625 22.585938 57.667969 C 23.027344 57.226562 23.027344 56.507812 22.585938 56.066406 Z M 19.777344 53.257812 "/>
<path style=" stroke:none;fill-rule:nonzero;fill:rgb(0%,0%,0%);fill-opacity:1;" d="M 14.042969 53.257812 C 13.601562 52.8125 12.886719 52.8125 12.441406 53.257812 C 12 53.699219 12 54.417969 12.441406 54.859375 L 15.25 57.667969 C 15.472656 57.890625 15.761719 58 16.050781 58 C 16.34375 58 16.632812 57.890625 16.851562 57.667969 C 17.296875 57.226562 17.296875 56.507812 16.851562 56.066406 Z M 14.042969 53.257812 "/>
<path style=" stroke:none;fill-rule:nonzero;fill:rgb(0%,0%,0%);fill-opacity:1;" d="M 8.3125 53.257812 C 7.867188 52.8125 7.152344 52.8125 6.707031 53.257812 C 6.265625 53.699219 6.265625 54.417969 6.707031 54.859375 L 9.519531 57.667969 C 9.738281 57.890625 10.027344 58 10.320312 58 C 10.609375 58 10.898438 57.890625 11.121094 57.667969 C 11.5625 57.226562 11.5625 56.507812 11.121094 56.066406 Z M 8.3125 53.257812 "/>
</g>
</svg>
