<?xml version="1.0" encoding="UTF-8"?>
<svg xmlns="http://www.w3.org/2000/svg" xmlns:xlink="http://www.w3.org/1999/xlink" width="58pt" height="58pt" viewBox="0 0 58 58" version="1.1">
<g id="surface1">
<path style=" stroke:none;fill-rule:nonzero;fill:rgb(85.098039%,92.54902%,99.215686%);fill-opacity:1;" d="M 2.007812 52.875 C 1.363281 52.875 0.847656 52.335938 0.875 51.695312 C 1.496094 36.695312 13.851562 24.726562 29 24.726562 C 44.152344 24.726562 56.503906 36.695312 57.125 51.695312 C 57.152344 52.335938 56.636719 52.875 55.992188 52.875 Z M 2.007812 52.875 "/>
<path style=" stroke:none;fill-rule:nonzero;fill:rgb(76.862745%,88.235294%,100%);fill-opacity:1;" d="M 57.125 51.695312 C 57.152344 52.339844 56.636719 52.875 55.992188 52.875 L 52.359375 52.875 C 53.003906 52.875 53.519531 52.339844 53.492188 51.695312 C 52.898438 37.300781 41.496094 25.695312 27.183594 24.785156 C 27.785156 24.746094 28.390625 24.726562 29 24.726562 C 44.152344 24.726562 56.503906 36.695312 57.125 51.695312 Z M 57.125 51.695312 "/>
<path style=" stroke:none;fill-rule:nonzero;fill:rgb(19.215686%,65.490196%,98.431373%);fill-opacity:1;" d="M 4.304688 52.875 C 4.304688 39.234375 15.363281 28.179688 29 28.179688 C 42.640625 28.179688 53.695312 39.234375 53.695312 52.875 Z M 4.304688 52.875 "/>
<path style=" stroke:none;fill-rule:nonzero;fill:rgb(10.980392%,58.823529%,97.647059%);fill-opacity:1;" d="M 53.695312 52.875 L 49.425781 52.875 C 49.425781 39.957031 39.503906 29.351562 26.867188 28.269531 C 27.570312 28.210938 28.28125 28.179688 29 28.179688 C 42.636719 28.179688 53.695312 39.234375 53.695312 52.875 Z M 53.695312 52.875 "/>
<path style=" stroke:none;fill-rule:nonzero;fill:rgb(98.431373%,29.019608%,34.901961%);fill-opacity:1;" d="M 21.082031 52.875 L 4.304688 52.875 C 4.304688 44.53125 8.445312 37.152344 14.78125 32.679688 Z M 21.082031 52.875 "/>
<path style=" stroke:none;fill-rule:nonzero;fill:rgb(51.372549%,81.960784%,40.392157%);fill-opacity:1;" d="M 43.21875 32.679688 L 36.917969 52.875 L 21.082031 52.875 L 14.78125 32.679688 C 18.800781 29.84375 23.707031 28.179688 29 28.179688 C 34.292969 28.179688 39.199219 29.84375 43.21875 32.679688 Z M 43.21875 32.679688 "/>
<path style=" stroke:none;fill-rule:nonzero;fill:rgb(32.941176%,75.294118%,19.607843%);fill-opacity:1;" d="M 43.21875 32.679688 L 42.324219 35.542969 C 38.3125 31.472656 32.902344 28.789062 26.871094 28.269531 C 27.570312 28.210938 28.28125 28.179688 29 28.179688 C 34.292969 28.179688 39.199219 29.84375 43.21875 32.679688 Z M 43.21875 32.679688 "/>
<path style=" stroke:none;fill-rule:nonzero;fill:rgb(98.431373%,29.019608%,34.901961%);fill-opacity:1;" d="M 30.527344 51.542969 C 28.316406 52.546875 25.707031 51.566406 24.703125 49.355469 C 23.699219 47.140625 24.679688 44.535156 26.894531 43.53125 C 28.4375 42.828125 41.382812 39.3125 49.050781 37.257812 C 50.109375 36.972656 50.753906 38.394531 49.839844 39.003906 C 43.246094 43.417969 32.074219 50.84375 30.527344 51.542969 Z M 30.527344 51.542969 "/>
<path style=" stroke:none;fill-rule:nonzero;fill:rgb(98.823529%,70.588235%,30.196078%);fill-opacity:1;" d="M 37.835938 37.660156 L 38.796875 37.808594 C 43 38.453125 46.390625 41.585938 47.375 45.722656 L 50.085938 57.148438 L 7.914062 57.148438 L 10.625 45.722656 C 11.609375 41.585938 15 38.453125 19.203125 37.808594 L 20.164062 37.660156 Z M 37.835938 37.660156 "/>
<path style=" stroke:none;fill-rule:nonzero;fill:rgb(98.431373%,60%,15.294118%);fill-opacity:1;" d="M 25.734375 37.660156 L 25.734375 43.503906 C 24.132812 42.566406 21.6875 43.539062 20.351562 44.214844 C 19.941406 44.425781 19.472656 44.074219 19.546875 43.621094 C 20.066406 40.503906 21.378906 38.640625 22.316406 37.660156 Z M 25.734375 37.660156 "/>
<path style=" stroke:none;fill-rule:nonzero;fill:rgb(98.431373%,60%,15.294118%);fill-opacity:1;" d="M 37.648438 44.214844 C 36.3125 43.539062 33.863281 42.566406 32.261719 43.503906 L 32.261719 37.660156 L 35.683594 37.660156 C 36.621094 38.640625 37.933594 40.503906 38.453125 43.621094 C 38.527344 44.074219 38.058594 44.425781 37.648438 44.214844 Z M 37.648438 44.214844 "/>
<path style=" stroke:none;fill-rule:nonzero;fill:rgb(100%,83.137255%,58.823529%);fill-opacity:1;" d="M 25.738281 37.660156 L 32.261719 37.660156 L 32.261719 57.148438 L 25.738281 57.148438 Z M 25.738281 37.660156 "/>
<path style=" stroke:none;fill-rule:nonzero;fill:rgb(98.431373%,60%,15.294118%);fill-opacity:1;" d="M 50.085938 57.148438 L 46.429688 57.148438 L 43.722656 45.722656 C 42.738281 41.585938 39.34375 38.453125 35.140625 37.808594 L 34.183594 37.660156 L 37.835938 37.660156 L 38.796875 37.808594 C 43 38.453125 46.390625 41.585938 47.375 45.722656 Z M 50.085938 57.148438 "/>
<path style=" stroke:none;fill-rule:nonzero;fill:rgb(99.215686%,65.490196%,60.784314%);fill-opacity:1;" d="M 33.804688 36.191406 C 32.578125 35.515625 31.824219 34.210938 31.824219 32.808594 L 31.824219 30.375 L 26.222656 30.375 L 26.222656 32.808594 C 26.222656 34.230469 25.441406 35.535156 24.195312 36.21875 L 24.195312 36.453125 C 24.195312 39.105469 26.347656 41.257812 29 41.257812 C 31.65625 41.257812 33.808594 39.105469 33.808594 36.453125 L 33.808594 36.191406 Z M 33.804688 36.191406 "/>
<path style=" stroke:none;fill-rule:nonzero;fill:rgb(98.823529%,56.470588%,52.156863%);fill-opacity:1;" d="M 32.621094 35.167969 C 31.503906 35.496094 30.300781 35.664062 29.023438 35.664062 C 27.746094 35.664062 26.542969 35.496094 25.421875 35.167969 C 25.933594 34.5 26.222656 33.675781 26.222656 32.808594 L 26.222656 30.375 L 31.824219 30.375 L 31.824219 32.808594 C 31.824219 33.675781 32.113281 34.503906 32.621094 35.167969 Z M 32.621094 35.167969 "/>
<path style=" stroke:none;fill-rule:nonzero;fill:rgb(99.607843%,90.588235%,78.823529%);fill-opacity:1;" d="M 25.738281 41.164062 L 25.738281 35.1875 C 25.738281 34.902344 25.519531 34.660156 25.234375 34.632812 L 24.238281 34.527344 C 23.597656 34.460938 22.964844 34.679688 22.503906 35.128906 C 21.5625 36.046875 20.101562 37.949219 19.546875 41.28125 C 19.472656 41.734375 19.941406 42.082031 20.351562 41.875 C 21.6875 41.199219 24.136719 40.222656 25.738281 41.164062 Z M 25.738281 41.164062 "/>
<path style=" stroke:none;fill-rule:nonzero;fill:rgb(99.607843%,90.588235%,78.823529%);fill-opacity:1;" d="M 32.261719 41.164062 L 32.261719 35.1875 C 32.261719 34.902344 32.480469 34.660156 32.765625 34.632812 L 33.761719 34.527344 C 34.402344 34.460938 35.035156 34.679688 35.496094 35.128906 C 36.4375 36.046875 37.898438 37.949219 38.453125 41.28125 C 38.527344 41.734375 38.058594 42.082031 37.648438 41.875 C 36.3125 41.199219 33.867188 40.222656 32.261719 41.164062 Z M 32.261719 41.164062 "/>
<path style=" stroke:none;fill-rule:nonzero;fill:rgb(42.352941%,20%,15.686275%);fill-opacity:1;" d="M 17.121094 6.234375 C 21.585938 1.035156 29.878906 4.28125 30.996094 4.730469 L 30.996094 14.960938 L 17.121094 17.671875 C 17.121094 17.671875 13.503906 10.441406 17.121094 6.234375 Z M 17.121094 6.234375 "/>
<path style=" stroke:none;fill-rule:nonzero;fill:rgb(52.941176%,24.705882%,18.823529%);fill-opacity:1;" d="M 17.914062 20.742188 L 17.929688 20.742188 C 17.941406 20.816406 17.9375 20.820312 17.914062 20.742188 Z M 17.914062 20.742188 "/>
<path style=" stroke:none;fill-rule:nonzero;fill:rgb(52.941176%,24.705882%,18.823529%);fill-opacity:1;" d="M 40.085938 20.742188 C 40.070312 20.800781 40.066406 20.796875 40.074219 20.742188 Z M 40.085938 20.742188 "/>
<path style=" stroke:none;fill-rule:nonzero;fill:rgb(52.941176%,24.705882%,18.823529%);fill-opacity:1;" d="M 15.019531 20.742188 L 15.035156 20.742188 C 15.046875 20.816406 15.042969 20.820312 15.019531 20.742188 Z M 15.019531 20.742188 "/>
<path style=" stroke:none;fill-rule:nonzero;fill:rgb(52.941176%,24.705882%,18.823529%);fill-opacity:1;" d="M 37.179688 20.742188 L 37.1875 20.742188 C 37.175781 20.800781 37.171875 20.796875 37.179688 20.742188 Z M 37.179688 20.742188 "/>
<path style=" stroke:none;fill-rule:nonzero;fill:rgb(99.215686%,65.490196%,60.784314%);fill-opacity:1;" d="M 41.167969 15.894531 C 39.570312 15.320312 37.726562 16.375 37.050781 18.253906 C 36.375 20.128906 37.128906 22.117188 38.726562 22.691406 C 40.328125 23.269531 42.171875 22.210938 42.84375 20.332031 C 43.519531 18.457031 42.769531 16.46875 41.167969 15.894531 Z M 41.167969 15.894531 "/>
<path style=" stroke:none;fill-rule:nonzero;fill:rgb(99.215686%,65.490196%,60.784314%);fill-opacity:1;" d="M 20.96875 18.214844 C 20.292969 16.335938 18.449219 15.28125 16.847656 15.855469 C 15.25 16.429688 14.5 18.417969 15.171875 20.292969 C 15.847656 22.171875 17.691406 23.226562 19.292969 22.652344 C 20.890625 22.078125 21.640625 20.089844 20.96875 18.214844 Z M 20.96875 18.214844 "/>
<path style=" stroke:none;fill-rule:nonzero;fill:rgb(98.823529%,70.196078%,66.27451%);fill-opacity:1;" d="M 38.644531 14.960938 L 38.644531 21.34375 C 38.644531 21.34375 38.644531 32.867188 29 32.867188 C 19.355469 32.867188 19.355469 21.34375 19.355469 21.34375 L 19.355469 14.960938 C 19.355469 12.769531 21.132812 10.992188 23.324219 10.992188 L 34.675781 10.992188 C 36.867188 10.992188 38.644531 12.769531 38.644531 14.960938 Z M 38.644531 14.960938 "/>
<path style=" stroke:none;fill-rule:nonzero;fill:rgb(99.215686%,65.490196%,60.784314%);fill-opacity:1;" d="M 38.644531 14.960938 L 38.644531 18.480469 L 30.035156 18.480469 C 29.289062 18.480469 28.746094 17.769531 28.929688 17.046875 C 29.621094 14.347656 28.890625 12.113281 28.375 10.992188 L 34.675781 10.992188 C 36.867188 10.992188 38.644531 12.769531 38.644531 14.960938 Z M 38.644531 14.960938 "/>
<path style=" stroke:none;fill-rule:nonzero;fill:rgb(97.254902%,95.294118%,94.509804%);fill-opacity:1;" d="M 29 28.179688 C 27.488281 28.179688 26.265625 26.953125 26.265625 25.445312 L 26.265625 24.554688 L 31.734375 24.554688 L 31.734375 25.445312 C 31.734375 26.953125 30.511719 28.179688 29 28.179688 Z M 29 28.179688 "/>
<path style=" stroke:none;fill-rule:nonzero;fill:rgb(42.352941%,20%,15.686275%);fill-opacity:1;" d="M 30.035156 15.828125 L 38.929688 15.828125 C 39.898438 15.828125 40.761719 15.214844 41.085938 14.300781 C 41.558594 12.957031 41.824219 11.015625 41.398438 8.277344 C 40.289062 1.144531 30.761719 -0.917969 25.539062 2.394531 C 23.457031 3.714844 22.8125 5.976562 22.789062 8.222656 L 28.320312 8.222656 C 28.835938 9.300781 29.644531 11.597656 28.929688 14.394531 C 28.746094 15.121094 29.289062 15.828125 30.035156 15.828125 Z M 30.035156 15.828125 "/>
<path style=" stroke:none;fill-rule:nonzero;fill:rgb(32.941176%,13.72549%,11.372549%);fill-opacity:1;" d="M 41.085938 14.300781 C 40.761719 15.21875 39.898438 15.828125 38.929688 15.828125 L 35.726562 15.828125 C 36.699219 15.828125 37.5625 15.21875 37.882812 14.300781 C 38.355469 12.957031 38.621094 11.015625 38.199219 8.277344 C 37.523438 3.933594 33.726562 1.46875 29.683594 0.957031 C 34.707031 0.300781 40.542969 2.789062 41.398438 8.277344 C 41.824219 11.015625 41.554688 12.957031 41.085938 14.300781 Z M 41.085938 14.300781 "/>
<path style=" stroke:none;fill-rule:nonzero;fill:rgb(19.215686%,65.490196%,98.431373%);fill-opacity:1;" d="M 56.042969 22.988281 C 56.042969 25.554688 53.964844 27.632812 51.398438 27.632812 C 48.835938 27.632812 46.757812 25.554688 46.757812 22.988281 C 46.757812 20.425781 48.835938 18.347656 51.398438 18.347656 C 53.964844 18.347656 56.042969 20.425781 56.042969 22.988281 Z M 56.042969 22.988281 "/>
<path style=" stroke:none;fill-rule:nonzero;fill:rgb(10.980392%,58.823529%,97.647059%);fill-opacity:1;" d="M 56.042969 22.988281 C 56.042969 25.554688 53.964844 27.632812 51.398438 27.632812 C 50.507812 27.632812 49.679688 27.382812 48.972656 26.945312 C 51.132812 26.917969 52.875 25.15625 52.875 22.988281 C 52.875 20.824219 51.132812 19.0625 48.972656 19.03125 C 49.679688 18.597656 50.507812 18.347656 51.398438 18.347656 C 53.964844 18.347656 56.042969 20.425781 56.042969 22.988281 Z M 56.042969 22.988281 "/>
<path style=" stroke:none;fill-rule:nonzero;fill:rgb(98.431373%,29.019608%,34.901961%);fill-opacity:1;" d="M 11.242188 22.988281 C 11.242188 25.554688 9.164062 27.632812 6.601562 27.632812 C 4.035156 27.632812 1.957031 25.554688 1.957031 22.988281 C 1.957031 20.425781 4.035156 18.347656 6.601562 18.347656 C 9.164062 18.347656 11.242188 20.425781 11.242188 22.988281 Z M 11.242188 22.988281 "/>
<path style=" stroke:none;fill-rule:nonzero;fill:rgb(97.254902%,18.431373%,25.098039%);fill-opacity:1;" d="M 11.242188 22.988281 C 11.242188 25.554688 9.164062 27.632812 6.601562 27.632812 C 5.710938 27.632812 4.878906 27.382812 4.171875 26.945312 C 6.332031 26.917969 8.074219 25.15625 8.074219 22.988281 C 8.074219 20.824219 6.332031 19.0625 4.171875 19.03125 C 4.878906 18.597656 5.710938 18.347656 6.601562 18.347656 C 9.164062 18.347656 11.242188 20.425781 11.242188 22.988281 Z M 11.242188 22.988281 "/>
<path style=" stroke:none;fill-rule:nonzero;fill:rgb(0%,0%,0%);fill-opacity:1;" d="M 24.0625 2.46875 C 20.839844 2.492188 18.285156 3.574219 16.476562 5.679688 C 13.824219 8.765625 14.660156 13.222656 15.449219 15.71875 C 14.976562 16.125 14.601562 16.660156 14.359375 17.300781 C 13.972656 18.328125 13.976562 19.496094 14.367188 20.59375 C 15.035156 22.460938 16.691406 23.675781 18.390625 23.675781 C 18.5 23.675781 18.613281 23.667969 18.722656 23.65625 C 18.816406 24.238281 18.953125 24.898438 19.144531 25.59375 C 13.863281 27.503906 9.277344 30.882812 5.863281 35.390625 C 2.289062 40.113281 0.273438 45.738281 0.0273438 51.660156 C 0.00390625 52.203125 0.199219 52.722656 0.578125 53.117188 C 0.957031 53.507812 1.464844 53.726562 2.007812 53.726562 L 7.855469 53.726562 L 7.089844 56.953125 C 6.980469 57.410156 7.261719 57.867188 7.71875 57.976562 C 7.785156 57.992188 7.851562 58 7.917969 58 C 8.300781 58 8.648438 57.738281 8.742188 57.347656 L 11.453125 45.917969 C 11.664062 45.027344 12.003906 44.171875 12.460938 43.371094 C 12.695312 42.964844 12.550781 42.445312 12.144531 42.210938 C 11.738281 41.976562 11.21875 42.121094 10.984375 42.527344 C 10.449219 43.46875 10.046875 44.476562 9.800781 45.527344 L 8.257812 52.027344 L 5.171875 52.027344 C 5.421875 44.832031 8.855469 38.3125 14.320312 34.058594 L 15.585938 38.109375 C 14.996094 38.417969 14.433594 38.773438 13.90625 39.179688 C 13.535156 39.464844 13.464844 39.996094 13.753906 40.371094 C 13.917969 40.585938 14.171875 40.703125 14.425781 40.703125 C 14.605469 40.703125 14.789062 40.644531 14.941406 40.523438 C 16.222656 39.542969 17.742188 38.890625 19.335938 38.648438 L 19.347656 38.644531 C 19.085938 39.382812 18.863281 40.210938 18.710938 41.140625 C 18.621094 41.667969 18.835938 42.195312 19.265625 42.511719 C 19.515625 42.691406 19.804688 42.785156 20.097656 42.785156 C 20.316406 42.785156 20.53125 42.734375 20.734375 42.632812 C 22.449219 41.761719 23.925781 41.445312 24.886719 41.722656 L 24.886719 57.148438 C 24.886719 57.617188 25.265625 58 25.738281 58 C 26.207031 58 26.585938 57.617188 26.585938 57.148438 L 26.585938 41.570312 C 27.335938 41.921875 28.152344 42.109375 29 42.109375 C 29.847656 42.109375 30.667969 41.921875 31.414062 41.570312 L 31.414062 57.148438 C 31.414062 57.621094 31.792969 58 32.261719 58 C 32.734375 58 33.113281 57.621094 33.113281 57.148438 L 33.113281 41.722656 C 34.074219 41.445312 35.550781 41.765625 37.265625 42.632812 C 37.46875 42.734375 37.683594 42.785156 37.902344 42.785156 C 38.195312 42.785156 38.484375 42.691406 38.734375 42.511719 C 39.164062 42.195312 39.378906 41.671875 39.289062 41.140625 C 39.136719 40.210938 38.914062 39.382812 38.652344 38.644531 L 38.664062 38.648438 C 42.546875 39.246094 45.640625 42.097656 46.546875 45.921875 L 49.257812 57.347656 C 49.351562 57.738281 49.699219 58 50.085938 58 C 50.148438 58 50.214844 57.992188 50.28125 57.976562 C 50.738281 57.867188 51.019531 57.410156 50.910156 56.953125 L 50.144531 53.726562 L 55.992188 53.722656 C 56.535156 53.722656 57.042969 53.507812 57.421875 53.113281 C 57.800781 52.722656 57.996094 52.203125 57.972656 51.660156 C 57.769531 46.730469 56.300781 41.90625 53.722656 37.714844 C 53.476562 37.3125 52.953125 37.1875 52.554688 37.433594 C 52.152344 37.679688 52.027344 38.203125 52.273438 38.601562 C 54.699219 42.550781 56.085938 47.089844 56.277344 51.730469 C 56.28125 51.835938 56.226562 51.90625 56.195312 51.9375 C 56.164062 51.96875 56.097656 52.023438 55.992188 52.023438 L 54.53125 52.023438 C 54.382812 47.53125 53.0625 43.183594 50.691406 39.378906 C 51.148438 38.851562 51.265625 38.113281 50.960938 37.445312 C 50.582031 36.617188 49.707031 36.203125 48.828125 36.4375 C 48.753906 36.457031 48.679688 36.476562 48.605469 36.496094 C 45.65625 32.976562 41.851562 30.324219 37.554688 28.800781 C 37.796875 28.371094 38.113281 27.691406 38.3125 27.207031 C 42.835938 28.847656 46.851562 31.667969 49.957031 35.382812 C 50.125 35.582031 50.367188 35.6875 50.609375 35.6875 C 50.800781 35.6875 50.992188 35.621094 51.152344 35.488281 C 51.511719 35.1875 51.5625 34.652344 51.261719 34.292969 C 47.953125 30.335938 43.671875 27.335938 38.855469 25.597656 C 39.046875 24.898438 39.179688 24.242188 39.277344 23.65625 C 39.386719 23.667969 39.5 23.675781 39.609375 23.675781 C 41.308594 23.675781 42.960938 22.460938 43.632812 20.59375 C 44.4375 18.351562 43.535156 15.949219 41.621094 15.140625 C 41.726562 14.964844 41.816406 14.78125 41.886719 14.582031 C 42.507812 12.816406 42.625 10.648438 42.238281 8.148438 C 41.753906 5.039062 39.773438 2.550781 36.664062 1.140625 C 32.921875 -0.558594 28.265625 -0.34375 25.082031 1.675781 C 24.714844 1.914062 24.371094 2.175781 24.0625 2.46875 Z M 42.03125 20.023438 C 41.585938 21.261719 40.507812 22.058594 39.46875 21.972656 C 39.492188 21.605469 39.492188 21.378906 39.492188 21.34375 L 39.492188 16.710938 C 39.847656 16.570312 40.335938 16.476562 40.867188 16.667969 C 42.023438 17.082031 42.546875 18.589844 42.03125 20.023438 Z M 15.96875 20.023438 C 15.710938 19.304688 15.703125 18.550781 15.949219 17.902344 C 16.175781 17.296875 16.597656 16.859375 17.132812 16.667969 C 17.664062 16.476562 18.152344 16.574219 18.507812 16.710938 L 18.507812 21.34375 C 18.507812 21.378906 18.507812 21.605469 18.53125 21.972656 C 17.492188 22.058594 16.414062 21.261719 15.96875 20.023438 Z M 19.6875 27.207031 C 19.886719 27.6875 20.203125 28.371094 20.445312 28.800781 C 15.640625 30.503906 11.507812 33.566406 8.449219 37.699219 C 5.351562 41.886719 3.640625 46.824219 3.472656 52.027344 L 2.007812 52.027344 C 1.902344 52.027344 1.835938 51.972656 1.804688 51.9375 C 1.773438 51.90625 1.71875 51.835938 1.722656 51.730469 C 2.179688 40.746094 9.375 30.953125 19.6875 27.207031 Z M 24.148438 35.371094 L 24.886719 35.449219 L 24.886719 39.980469 C 23.445312 39.746094 21.824219 40.25 20.492188 40.863281 C 21.078125 38.054688 22.359375 36.457031 23.097656 35.738281 C 23.34375 35.496094 23.808594 35.371094 24.148438 35.371094 Z M 25.214844 33.777344 L 24.324219 33.683594 C 23.433594 33.589844 22.554688 33.894531 21.910156 34.519531 C 21.367188 35.050781 20.742188 35.800781 20.175781 36.8125 L 20.164062 36.8125 C 20.121094 36.8125 20.078125 36.8125 20.035156 36.820312 L 19.074219 36.96875 C 18.421875 37.070312 17.78125 37.226562 17.15625 37.441406 L 15.777344 33.015625 C 17.5 31.871094 19.390625 30.9375 21.425781 30.257812 C 22.488281 31.585938 23.808594 32.542969 25.355469 33.109375 C 25.335938 33.335938 25.285156 33.558594 25.214844 33.777344 Z M 31.414062 35.1875 L 31.414062 39.585938 C 30.71875 40.121094 29.878906 40.410156 29 40.410156 C 28.121094 40.410156 27.28125 40.125 26.585938 39.59375 L 26.585938 35.1875 C 26.804688 34.753906 26.933594 34.027344 27.011719 33.546875 C 27.644531 33.660156 28.308594 33.714844 29 33.714844 C 29.710938 33.714844 30.386719 33.65625 31.035156 33.539062 C 31.105469 34.003906 31.210938 34.765625 31.414062 35.1875 Z M 29 32.015625 C 25.390625 32.015625 22.820312 30.269531 21.363281 26.820312 C 20.226562 24.128906 20.207031 21.371094 20.207031 21.34375 L 20.207031 14.960938 C 20.207031 13.332031 21.476562 11.964844 23.101562 11.851562 C 23.570312 11.816406 23.921875 11.414062 23.890625 10.945312 C 23.855469 10.476562 23.453125 10.125 22.980469 10.15625 C 20.480469 10.332031 18.515625 12.433594 18.507812 14.945312 C 18 14.835938 17.484375 14.839844 16.988281 14.945312 C 16.335938 12.761719 15.726562 9.15625 17.765625 6.789062 C 18.996094 5.355469 20.679688 4.507812 22.777344 4.253906 C 22.234375 5.355469 21.953125 6.675781 21.9375 8.214844 C 21.933594 8.683594 22.3125 9.066406 22.78125 9.070312 L 22.789062 9.070312 C 23.253906 9.070312 23.632812 8.695312 23.636719 8.230469 C 23.664062 5.8125 24.457031 4.089844 25.996094 3.113281 C 28.671875 1.414062 32.769531 1.238281 35.960938 2.6875 C 38.53125 3.851562 40.164062 5.882812 40.558594 8.40625 C 40.902344 10.628906 40.808594 12.519531 40.28125 14.019531 C 40.082031 14.59375 39.535156 14.976562 38.925781 14.976562 L 37.988281 14.976562 C 40.109375 9.699219 36.6875 5.226562 36.535156 5.027344 C 36.246094 4.660156 35.714844 4.59375 35.34375 4.882812 C 34.972656 5.171875 34.90625 5.703125 35.195312 6.074219 C 35.328125 6.246094 38.433594 10.347656 36.128906 14.976562 L 30.035156 14.976562 C 29.914062 14.976562 29.839844 14.90625 29.808594 14.867188 C 29.773438 14.824219 29.722656 14.730469 29.753906 14.605469 C 30.53125 11.5625 29.667969 9.070312 29.085938 7.855469 C 28.882812 7.429688 28.375 7.253906 27.953125 7.457031 C 27.527344 7.660156 27.351562 8.167969 27.554688 8.589844 C 27.734375 8.96875 27.949219 9.496094 28.113281 10.144531 L 27.152344 10.144531 C 26.683594 10.144531 26.304688 10.523438 26.304688 10.992188 C 26.304688 11.460938 26.683594 11.839844 27.152344 11.839844 L 28.355469 11.839844 C 28.386719 12.558594 28.320312 13.34375 28.109375 14.183594 C 27.953125 14.789062 28.082031 15.417969 28.464844 15.90625 C 28.84375 16.394531 29.417969 16.675781 30.035156 16.675781 L 37.792969 16.675781 L 37.792969 21.34375 C 37.792969 21.371094 37.78125 24.085938 36.652344 26.777344 C 35.199219 30.253906 32.625 32.015625 29 32.015625 Z M 33.863281 39.921875 C 33.609375 39.921875 33.359375 39.941406 33.113281 39.980469 L 33.113281 35.449219 L 33.851562 35.371094 C 34.238281 35.332031 34.625 35.464844 34.902344 35.738281 C 35.644531 36.457031 36.921875 38.054688 37.507812 40.863281 C 36.402344 40.355469 35.097656 39.921875 33.863281 39.921875 Z M 40.84375 37.4375 C 40.226562 37.230469 39.585938 37.070312 38.925781 36.96875 L 37.964844 36.820312 C 37.921875 36.8125 37.878906 36.8125 37.835938 36.8125 L 37.824219 36.8125 C 37.257812 35.800781 36.632812 35.050781 36.089844 34.519531 C 35.445312 33.894531 34.566406 33.589844 33.675781 33.683594 L 32.832031 33.769531 C 32.757812 33.550781 32.710938 33.324219 32.6875 33.09375 C 34.21875 32.523438 35.519531 31.574219 36.574219 30.257812 C 38.582031 30.929688 40.476562 31.863281 42.222656 33.023438 Z M 42.625 38.113281 C 42.585938 38.121094 42.550781 38.136719 42.511719 38.152344 C 42.480469 38.136719 42.449219 38.121094 42.417969 38.105469 L 43.671875 34.074219 C 44.789062 34.945312 45.828125 35.921875 46.78125 36.988281 C 45.394531 37.359375 43.988281 37.742188 42.625 38.113281 Z M 45.742188 40.71875 C 45.328125 40.238281 44.871094 39.796875 44.378906 39.394531 C 46.011719 38.953125 47.679688 38.503906 49.269531 38.078125 C 49.3125 38.066406 49.371094 38.050781 49.414062 38.144531 C 49.457031 38.242188 49.40625 38.273438 49.371094 38.296875 C 48.265625 39.035156 47.035156 39.859375 45.742188 40.71875 Z M 49.742188 52.027344 L 48.203125 45.527344 C 47.90625 44.28125 47.410156 43.125 46.757812 42.085938 C 47.644531 41.492188 48.503906 40.921875 49.3125 40.378906 C 51.476562 43.890625 52.683594 47.890625 52.832031 52.027344 Z M 49.742188 52.027344 "/>
<path style=" stroke:none;fill-rule:nonzero;fill:rgb(0%,0%,0%);fill-opacity:1;" d="M 25.414062 24.554688 L 25.414062 25.445312 C 25.414062 27.421875 27.023438 29.027344 29 29.027344 C 30.976562 29.027344 32.585938 27.421875 32.585938 25.445312 L 32.585938 24.554688 C 32.585938 24.085938 32.207031 23.707031 31.734375 23.707031 L 26.265625 23.707031 C 25.796875 23.707031 25.414062 24.085938 25.414062 24.554688 Z M 27.113281 25.40625 L 30.886719 25.40625 L 30.886719 25.445312 C 30.886719 26.484375 30.039062 27.332031 29 27.332031 C 27.960938 27.332031 27.113281 26.484375 27.113281 25.445312 Z M 27.113281 25.40625 "/>
<path style=" stroke:none;fill-rule:nonzero;fill:rgb(0%,0%,0%);fill-opacity:1;" d="M 32.367188 19.789062 C 32.542969 19.789062 32.71875 19.738281 32.867188 19.628906 C 33.101562 19.457031 33.417969 19.363281 33.757812 19.363281 C 34.09375 19.363281 34.410156 19.457031 34.644531 19.628906 C 35.023438 19.902344 35.554688 19.820312 35.832031 19.441406 C 36.109375 19.058594 36.023438 18.527344 35.644531 18.253906 C 35.121094 17.871094 34.449219 17.664062 33.757812 17.664062 C 33.0625 17.664062 32.394531 17.871094 31.871094 18.253906 C 31.488281 18.527344 31.40625 19.058594 31.679688 19.441406 C 31.847656 19.667969 32.105469 19.789062 32.367188 19.789062 Z M 32.367188 19.789062 "/>
<path style=" stroke:none;fill-rule:nonzero;fill:rgb(0%,0%,0%);fill-opacity:1;" d="M 22.167969 19.441406 C 22.445312 19.820312 22.976562 19.902344 23.355469 19.628906 C 23.589844 19.457031 23.90625 19.363281 24.242188 19.363281 C 24.582031 19.363281 24.898438 19.457031 25.132812 19.628906 C 25.28125 19.738281 25.457031 19.789062 25.632812 19.789062 C 25.894531 19.789062 26.152344 19.667969 26.320312 19.441406 C 26.59375 19.058594 26.511719 18.527344 26.132812 18.253906 C 25.605469 17.871094 24.9375 17.664062 24.242188 17.664062 C 23.550781 17.664062 22.878906 17.871094 22.355469 18.253906 C 21.976562 18.527344 21.890625 19.058594 22.167969 19.441406 Z M 22.167969 19.441406 "/>
<path style=" stroke:none;fill-rule:nonzero;fill:rgb(0%,0%,0%);fill-opacity:1;" d="M 28.671875 22.613281 L 29.328125 22.613281 C 29.796875 22.613281 30.175781 22.230469 30.175781 21.761719 C 30.175781 21.292969 29.796875 20.914062 29.328125 20.914062 L 28.671875 20.914062 C 28.203125 20.914062 27.824219 21.292969 27.824219 21.761719 C 27.824219 22.230469 28.203125 22.613281 28.671875 22.613281 Z M 28.671875 22.613281 "/>
<path style=" stroke:none;fill-rule:nonzero;fill:rgb(0%,0%,0%);fill-opacity:1;" d="M 33.527344 13.367188 C 33.601562 13.386719 33.675781 13.394531 33.75 13.394531 C 34.125 13.394531 34.464844 13.148438 34.570312 12.769531 C 34.914062 11.492188 34.625 9.527344 34.589844 9.308594 C 34.515625 8.84375 34.082031 8.527344 33.621094 8.597656 C 33.15625 8.671875 32.839844 9.105469 32.910156 9.570312 C 32.988281 10.066406 33.140625 11.535156 32.929688 12.324219 C 32.804688 12.777344 33.074219 13.246094 33.527344 13.367188 Z M 33.527344 13.367188 "/>
<path style=" stroke:none;fill-rule:nonzero;fill:rgb(0%,0%,0%);fill-opacity:1;" d="M 51.398438 28.480469 C 54.429688 28.480469 56.890625 26.019531 56.890625 22.988281 C 56.890625 19.960938 54.429688 17.496094 51.398438 17.496094 C 48.371094 17.496094 45.90625 19.960938 45.90625 22.988281 C 45.90625 26.019531 48.371094 28.480469 51.398438 28.480469 Z M 51.398438 19.195312 C 53.492188 19.195312 55.191406 20.898438 55.191406 22.988281 C 55.191406 25.082031 53.492188 26.78125 51.398438 26.78125 C 49.308594 26.78125 47.605469 25.082031 47.605469 22.988281 C 47.605469 20.898438 49.308594 19.195312 51.398438 19.195312 Z M 51.398438 19.195312 "/>
<path style=" stroke:none;fill-rule:nonzero;fill:rgb(0%,0%,0%);fill-opacity:1;" d="M 49.882812 23.839844 L 50.550781 23.839844 L 50.550781 24.507812 C 50.550781 24.976562 50.929688 25.359375 51.398438 25.359375 C 51.871094 25.359375 52.25 24.976562 52.25 24.507812 L 52.25 23.839844 L 52.917969 23.839844 C 53.386719 23.839844 53.769531 23.457031 53.769531 22.988281 C 53.769531 22.519531 53.386719 22.140625 52.917969 22.140625 L 52.25 22.140625 L 52.25 21.472656 C 52.25 21 51.871094 20.621094 51.398438 20.621094 C 50.929688 20.621094 50.550781 21 50.550781 21.472656 L 50.550781 22.140625 L 49.882812 22.140625 C 49.410156 22.140625 49.03125 22.519531 49.03125 22.988281 C 49.03125 23.457031 49.410156 23.839844 49.882812 23.839844 Z M 49.882812 23.839844 "/>
<path style=" stroke:none;fill-rule:nonzero;fill:rgb(0%,0%,0%);fill-opacity:1;" d="M 6.601562 28.480469 C 9.628906 28.480469 12.09375 26.019531 12.09375 22.988281 C 12.09375 19.960938 9.628906 17.496094 6.601562 17.496094 C 3.570312 17.496094 1.109375 19.960938 1.109375 22.988281 C 1.109375 26.019531 3.570312 28.480469 6.601562 28.480469 Z M 6.601562 19.195312 C 8.691406 19.195312 10.394531 20.898438 10.394531 22.988281 C 10.394531 25.082031 8.691406 26.78125 6.601562 26.78125 C 4.507812 26.78125 2.808594 25.082031 2.808594 22.988281 C 2.808594 20.898438 4.507812 19.195312 6.601562 19.195312 Z M 6.601562 19.195312 "/>
<path style=" stroke:none;fill-rule:nonzero;fill:rgb(0%,0%,0%);fill-opacity:1;" d="M 5.082031 23.839844 L 8.117188 23.839844 C 8.589844 23.839844 8.96875 23.457031 8.96875 22.988281 C 8.96875 22.519531 8.589844 22.140625 8.117188 22.140625 L 5.082031 22.140625 C 4.613281 22.140625 4.230469 22.519531 4.230469 22.988281 C 4.230469 23.457031 4.613281 23.839844 5.082031 23.839844 Z M 5.082031 23.839844 "/>
<path style=" stroke:none;fill-rule:nonzero;fill:rgb(0%,0%,0%);fill-opacity:1;" d="M 41.972656 47.132812 C 41.503906 47.132812 41.125 47.511719 41.125 47.980469 L 41.125 56.871094 C 41.125 57.339844 41.503906 57.722656 41.972656 57.722656 C 42.441406 57.722656 42.824219 57.339844 42.824219 56.871094 L 42.824219 47.980469 C 42.824219 47.511719 42.441406 47.132812 41.972656 47.132812 Z M 41.972656 47.132812 "/>
<path style=" stroke:none;fill-rule:nonzero;fill:rgb(0%,0%,0%);fill-opacity:1;" d="M 16.027344 47.132812 C 15.558594 47.132812 15.175781 47.511719 15.175781 47.980469 L 15.175781 56.871094 C 15.175781 57.339844 15.558594 57.722656 16.027344 57.722656 C 16.496094 57.722656 16.875 57.339844 16.875 56.871094 L 16.875 47.980469 C 16.875 47.511719 16.496094 47.132812 16.027344 47.132812 Z M 16.027344 47.132812 "/>
</g>
</svg>
